<?xml version="1.0" encoding="UTF-8"?>
<!-- Generator: visioncortex VTracer 0.6.2 -->
<svg version="1.1" xmlns="http://www.w3.org/2000/svg" width="1280" height="497">
<path d="M0 0 C422.4 0 844.8 0 1280 0 C1280 164.01 1280 328.02 1280 497 C857.6 497 435.2 497 0 497 C0 332.99 0 168.98 0 0 Z " fill="#FCFCFC" transform="translate(0,0)"/>
<path d="M0 0 C4.95 0 9.9 0 15 0 C15 0.33 15 0.66 15 1 C1.3485212 3.05018383 -12.20648965 5.0132513 -26 5.75 C-45.67151077 6.89053316 -65.14815719 10.48459674 -84.59074402 13.54450989 C-90.43701144 14.46121244 -96.28603376 15.33104167 -102.14857483 16.13690186 C-113.99111256 17.76651321 -125.70552936 19.90230578 -137.4375 22.1875 C-138.44824585 22.38286346 -139.4589917 22.57822693 -140.50036621 22.7795105 C-169.68932723 28.4218302 -198.74246985 34.59606991 -227.7000885 41.32337952 C-232.40353972 42.41209938 -237.11253768 43.47367278 -241.82495117 44.52294922 C-259.39850872 48.44269629 -276.89988623 52.59794527 -294.36401367 56.97949219 C-297.09127475 57.66361981 -299.81945452 58.34387217 -302.54858398 59.02050781 C-319.01810438 63.10401426 -335.37847587 67.44088332 -351.63864136 72.3012085 C-355.55066303 73.45888419 -359.48564823 74.52774562 -363.42285156 75.59570312 C-378.39350692 79.66098653 -393.12689339 84.42126699 -407.85198975 89.28988647 C-409.36299444 89.7894115 -410.87429244 90.28804971 -412.38580322 90.78604126 C-425.4416625 95.09017936 -438.4314373 99.55687188 -451.375 104.1875 C-452.27498718 104.50881897 -453.17497437 104.83013794 -454.10223389 105.16119385 C-468.50358863 110.3089027 -482.79658396 115.69123757 -497.03125 121.28125 C-504.61540316 124.25773583 -512.24667859 127.10379143 -519.90478516 129.88427734 C-525.94389841 132.11119344 -531.75412556 134.68383712 -537.58105469 137.41601562 C-542.89613205 139.87847077 -548.27837102 142.18187072 -553.65991211 144.49459839 C-563.9505077 148.91841227 -574.21070214 153.40142859 -584.41040039 158.03173828 C-589.08164229 160.1492362 -593.77426026 162.19447063 -598.5 164.1875 C-603.58100661 166.34913056 -608.5077414 168.7037015 -613.42578125 171.2109375 C-617.03404237 173.01703979 -620.66937424 174.75346166 -624.31567383 176.48095703 C-635.52647998 181.79456933 -646.65117077 187.26969165 -657.75 192.8125 C-658.47656799 193.17453522 -659.20313599 193.53657043 -659.95172119 193.90957642 C-670.82824243 199.33245691 -681.54880494 204.959795 -692.0625 211.0625 C-707.59590931 220 -707.59590931 220 -711 220 C-711 220.66 -711 221.32 -711 222 C-709.23571655 222.03758423 -709.23571655 222.03758423 -707.43579102 222.07592773 C-703.08785378 222.16982806 -698.74008284 222.27009048 -694.39233398 222.37231445 C-692.50760782 222.41572933 -690.62284064 222.45739943 -688.73803711 222.49731445 C-686.03486751 222.55485893 -683.33190564 222.61859804 -680.62890625 222.68359375 C-679.78099014 222.70030624 -678.93307404 222.71701874 -678.0594635 222.73423767 C-672.11387171 222.88612829 -672.11387171 222.88612829 -671 224 C-670.92680379 226.69654854 -670.90757463 229.36691458 -670.9375 232.0625 C-670.94201172 232.82111328 -670.94652344 233.57972656 -670.95117188 234.36132812 C-670.9629932 236.24091871 -670.98092922 238.12046899 -671 240 C-677.5659052 243.2829526 -685.65909482 241 -693 241 C-693.33 266.74 -693.66 292.48 -694 319 C-699.61 319 -705.22 319 -711 319 C-713.01172737 314.97654526 -713.24237459 313.48415352 -713.21118164 309.15258789 C-713.20780289 307.97358414 -713.20442413 306.79458038 -713.20094299 305.57984924 C-713.18748337 304.30697556 -713.17402374 303.03410187 -713.16015625 301.72265625 C-713.15220515 299.70878103 -713.14425964 297.69490577 -713.13662624 295.68102932 C-713.12349685 292.85590349 -713.10131237 290.03087689 -713.07904053 287.20581055 C-713.03596549 281.62417529 -713.00586747 276.04250383 -712.9829998 270.46075249 C-712.9729582 268.53069269 -712.95559432 266.60067532 -712.93800354 264.67066956 C-712.89505051 256.72992247 -713.26251903 248.90664549 -714 241 C-714.61564819 241.0110376 -715.23129639 241.0220752 -715.86560059 241.03344727 C-718.34783908 241.07532403 -720.83003703 241.09990651 -723.3125 241.125 C-724.63411133 241.15013672 -724.63411133 241.15013672 -725.98242188 241.17578125 C-726.82998047 241.18222656 -727.67753906 241.18867188 -728.55078125 241.1953125 C-729.33106689 241.20578613 -730.11135254 241.21625977 -730.9152832 241.22705078 C-733 241 -733 241 -736 239 C-736 238.01 -736 237.02 -736 236 C-742.18307785 238.97313956 -748.08301254 242.17488921 -753.87109375 245.86328125 C-756 247 -756 247 -759 247 C-759 247.66 -759 248.32 -759 249 C-760.65234375 250.23681641 -760.65234375 250.23681641 -762.9375 251.6015625 C-763.74960937 252.09140625 -764.56171875 252.58125 -765.3984375 253.0859375 C-766.25695312 253.59382812 -767.11546875 254.10171875 -768 254.625 C-768.85851562 255.140625 -769.71703125 255.65625 -770.6015625 256.1875 C-772.73056234 257.4648999 -774.86341196 258.73534697 -777 260 C-776.17757813 260.25652344 -775.35515625 260.51304687 -774.5078125 260.77734375 C-764.70942626 264.13776028 -756.77441409 269.19098392 -751 278 C-747.74208592 287.11170622 -748.14451332 296.20414943 -752 305 C-755.53107816 311.53903363 -761.08623519 317.14699408 -768.0625 319.9375 C-781.38575121 323.61287964 -793.98097177 320.50350228 -805.75 314 C-808.234375 312.5625 -808.234375 312.5625 -810 311 C-810 309.68 -810 308.36 -810 307 C-810.66 306.67 -811.32 306.34 -812 306 C-811.53980469 305.58878906 -811.07960938 305.17757813 -810.60546875 304.75390625 C-808.86605819 302.85367428 -808.16551467 301.35211825 -807.3125 298.9375 C-807.06113281 298.24527344 -806.80976562 297.55304688 -806.55078125 296.83984375 C-805.90440399 295.00075479 -805.90440399 295.00075479 -806 293 C-801.11421397 294.85911344 -796.56703168 297.24500516 -791.9375 299.66015625 C-786.01012062 302.36373488 -780.08519385 302.77129846 -773.75 301.1875 C-770.36901347 299.72752854 -768.76435697 298.52871393 -767.125 295.25 C-766.92355202 291.62393631 -767.86448721 288.8630692 -770 286 C-772.77757228 284.09330549 -775.83595555 283.11350834 -779 282 C-780.32537124 281.50175292 -781.64950143 281.00019732 -782.97265625 280.49609375 C-785.75293677 279.4394407 -788.53754909 278.39633365 -791.328125 277.3671875 C-795 276 -795 276 -797.7109375 274.6484375 C-800.01847228 273.72748252 -800.01847228 273.72748252 -802.1484375 274.984375 C-802.88320313 275.56703125 -803.61796875 276.1496875 -804.375 276.75 C-808.77928777 280.09301361 -813.25681193 283.21451863 -817.875 286.25 C-822.68180195 289.40454657 -822.68180195 289.40454657 -827.3203125 292.796875 C-829 294 -829 294 -831 294 C-831.00423194 294.81852164 -831.00846388 295.63704329 -831.01282406 296.48036861 C-831.11598467 316.36736727 -831.22460021 336.25432956 -831.33933926 356.14126492 C-831.39469294 365.75830794 -831.4481784 375.37535467 -831.49731445 384.99243164 C-831.54013008 393.371535 -831.58640134 401.7506108 -831.63687855 410.12967163 C-831.66350069 414.56914507 -831.6883542 419.00861297 -831.70907402 423.44811821 C-831.72860769 427.62179952 -831.75274145 431.79542828 -831.78049088 435.96906281 C-831.7898787 437.5054002 -831.79754771 439.04174916 -831.80341911 440.57810402 C-831.81165104 442.66662445 -831.82591911 444.75501631 -831.84178162 446.8434906 C-831.85146044 448.60088892 -831.85146044 448.60088892 -831.8613348 450.39379025 C-832 453 -832 453 -833 454 C-835.42490371 454.11322434 -837.82026862 454.16416875 -840.24609375 454.16796875 C-841.33556053 454.17296135 -841.33556053 454.17296135 -842.44703674 454.17805481 C-843.98625046 454.18312675 -845.5254752 454.18546305 -847.06469727 454.18530273 C-849.42417471 454.18748766 -851.78318361 454.20563565 -854.14257812 454.22460938 C-855.63541506 454.22754352 -857.12825423 454.22952817 -858.62109375 454.23046875 C-859.32946884 454.23765427 -860.03784393 454.24483978 -860.76768494 454.25224304 C-865.77117663 454.22882337 -865.77117663 454.22882337 -868 452 C-868.21781495 449.10968516 -868.31144084 446.31239184 -868.31884766 443.41943359 C-868.32889328 442.53156662 -868.3389389 441.64369965 -868.34928894 440.72892761 C-868.38025367 437.78543768 -868.39719286 434.84203923 -868.4140625 431.8984375 C-868.43276347 429.86104538 -868.45233606 427.8236611 -868.4727478 425.7862854 C-868.5241882 420.41707973 -868.56375006 415.04784892 -868.60089111 409.67852783 C-868.64085628 404.202288 -868.69198268 398.72615384 -868.7421875 393.25 C-868.83908771 382.5000741 -868.92344722 371.7500887 -869 361 C-871.37237071 363.90760069 -873.4707257 366.55913282 -875 370 C-875.66 370 -876.32 370 -877 370 C-877.26683594 370.72316406 -877.53367187 371.44632812 -877.80859375 372.19140625 C-879.00317648 375.00748816 -880.39373796 377.37715351 -882.0625 379.9375 C-882.68511719 380.89914062 -883.30773437 381.86078125 -883.94921875 382.8515625 C-884.62597656 383.89054687 -885.30273438 384.92953125 -886 386 C-887.08380728 387.68592243 -888.16758015 389.37186771 -889.24975586 391.05883789 C-890.39159044 392.83835574 -891.53534996 394.61662205 -892.6796875 396.39453125 C-894.58047296 399.34785072 -896.48018835 402.30185544 -898.37915039 405.25634766 C-899.12813909 406.4215137 -899.87732623 407.5865522 -900.62670898 408.75146484 C-902.49331291 411.65345379 -904.35706572 414.55719558 -906.21484375 417.46484375 C-910.44392608 424.0766257 -914.7349206 430.64076515 -919.11328125 437.15478516 C-921.44228861 440.62930972 -923.72856003 444.12617834 -925.97265625 447.65625 C-926.46717285 448.43186279 -926.96168945 449.20747559 -927.47119141 450.0065918 C-928.43049092 451.51518052 -929.38480587 453.0269534 -930.33349609 454.54223633 C-930.76871582 455.22568115 -931.20393555 455.90912598 -931.65234375 456.61328125 C-932.22456665 457.52267456 -932.22456665 457.52267456 -932.80834961 458.45043945 C-934 460 -934 460 -937 462 C-937 461.34 -937 460.68 -937 460 C-937.58652344 459.76796875 -938.17304687 459.5359375 -938.77734375 459.296875 C-944.7317907 455.82257555 -948.01665929 447.96668141 -951 442 C-952.66321449 439.53581643 -954.38736004 437.11985039 -956.11328125 434.69921875 C-957.96511666 432.04990556 -959.7135119 429.35892163 -961.4375 426.625 C-964.04149734 422.50691371 -966.65424378 418.39585026 -969.3125 414.3125 C-969.96863281 413.29800781 -970.62476563 412.28351563 -971.30078125 411.23828125 C-971.86152344 410.49964844 -972.42226563 409.76101563 -973 409 C-975.22868529 408.77177485 -975.22868529 408.77177485 -977.0625 410.9375 C-978.04378126 411.95630084 -979.02257468 412.97749924 -980 414 C-984.86715202 418.96932506 -989.78864233 423.77004063 -995.07421875 428.29296875 C-997.72772671 430.64506404 -1000.19118099 433.1639803 -1002.65234375 435.71484375 C-1004 437 -1004 437 -1005 437 C-1005.33 442.61 -1005.66 448.22 -1006 454 C-1017.55 454 -1029.1 454 -1041 454 C-1041.33 453.34 -1041.66 452.68 -1042 452 C-1056.82920876 451.97666061 -1071.65841509 451.9590157 -1086.48763847 451.94818783 C-1093.37278736 451.94302709 -1100.25792484 451.9359886 -1107.14306641 451.92456055 C-1113.78254293 451.91354548 -1120.42201069 451.90772226 -1127.06149673 451.90512276 C-1129.59973462 451.90326927 -1132.13797182 451.89965012 -1134.67620468 451.89426994 C-1138.2201861 451.88705394 -1141.76411794 451.8860093 -1145.30810547 451.88647461 C-1146.89629593 451.8810817 -1146.89629593 451.8810817 -1148.51657104 451.87557983 C-1149.47853394 451.8769545 -1150.44049683 451.87832916 -1151.43161011 451.87974548 C-1152.27044172 451.87882369 -1153.10927334 451.8779019 -1153.97352409 451.87695217 C-1156.0693473 451.87126466 -1156.0693473 451.87126466 -1158 453 C-1161.08104852 448.51047215 -1163.3506583 444.31753647 -1165.1875 439.1875 C-1167.27962805 433.49481302 -1169.86764154 428.26994501 -1172.75 422.9375 C-1176.75376237 415.52058427 -1180.33526118 408.00314474 -1183.73632812 400.29321289 C-1186.93555482 393.0644096 -1190.41121124 386.0022795 -1194.00219727 378.96166992 C-1197.79568409 371.5037138 -1201.46587234 363.99214531 -1205.0625 356.4375 C-1206.02976131 354.41006721 -1206.99721619 352.38272676 -1207.96484375 350.35546875 C-1208.46226074 349.31310059 -1208.95967773 348.27073242 -1209.47216797 347.19677734 C-1212.01459739 341.8770952 -1214.57058526 336.56393443 -1217.125 331.25 C-1220.7139819 323.78312201 -1224.27949427 316.30601431 -1227.8125 308.8125 C-1230.27461777 303.59376312 -1232.77700964 298.40298797 -1235.375 293.25 C-1239.41915627 285.22706643 -1243.27655326 277.11663861 -1247.13671875 269.00390625 C-1249.04005889 265.00383151 -1250.96006781 261.01245659 -1252.89453125 257.02734375 C-1253.3536792 256.07674072 -1253.81282715 255.1261377 -1254.28588867 254.14672852 C-1255.157956 252.34170018 -1256.03421291 250.53868806 -1256.9152832 248.73803711 C-1257.30675537 247.92471924 -1257.69822754 247.11140137 -1258.1015625 246.2734375 C-1258.44525879 245.56622559 -1258.78895508 244.85901367 -1259.14306641 244.13037109 C-1260.09752808 241.7575413 -1260.64828606 239.5320172 -1261 237 C-1259.24865086 235.24865086 -1256.96031697 235.87169635 -1254.62734985 235.86105347 C-1253.50083511 235.86408981 -1253.50083511 235.86408981 -1252.3515625 235.8671875 C-1251.19906509 235.86575241 -1251.19906509 235.86575241 -1250.02328491 235.86428833 C-1248.39410317 235.86360643 -1246.76491874 235.86546139 -1245.13574219 235.86962891 C-1242.64251576 235.87496253 -1240.14947068 235.86969183 -1237.65625 235.86328125 C-1236.07552044 235.86394232 -1234.49479098 235.86522407 -1232.9140625 235.8671875 C-1232.16710114 235.86516327 -1231.42013977 235.86313904 -1230.65054321 235.86105347 C-1227.49808467 235.8753048 -1225.013438 235.99552067 -1222 237 C-1220.67547457 239.06785032 -1219.54507509 241.06853177 -1218.4375 243.25 C-1218.09380371 243.90967773 -1217.75010742 244.56935547 -1217.39599609 245.24902344 C-1214.05319856 251.73789569 -1210.95940504 258.34624498 -1207.85546875 264.95166016 C-1204.65335519 271.73052479 -1201.22074612 278.35748309 -1197.68457031 284.96679688 C-1194.33227338 291.27111648 -1191.26862228 297.68570033 -1188.25366211 304.15673828 C-1185.97446288 309.02124524 -1183.5718121 313.78416111 -1181 318.5 C-1177.54578285 324.83846268 -1174.42980145 331.30604097 -1171.37524414 337.84545898 C-1168.49885178 343.99341105 -1165.49625888 350.06791464 -1162.38671875 356.10131836 C-1160 360.7873325 -1160 360.7873325 -1160 363 C-1158.68 363 -1157.36 363 -1156 363 C-1155.74943848 362.46334717 -1155.49887695 361.92669434 -1155.24072266 361.3737793 C-1150.2882237 350.79609502 -1145.19667897 340.33560831 -1139.68652344 330.03686523 C-1136.33356014 323.7313219 -1133.26921104 317.31556335 -1130.25366211 310.84326172 C-1127.97446288 305.97875476 -1125.5718121 301.21583889 -1123 296.5 C-1119.97026889 290.94046604 -1117.18792963 285.29499157 -1114.5 279.5625 C-1108.96105955 267.74971703 -1103.1473322 256.10378658 -1097.0625 244.5625 C-1096.67255859 243.82177246 -1096.28261719 243.08104492 -1095.88085938 242.31787109 C-1093.1230912 237.1230912 -1093.1230912 237.1230912 -1092 236 C-1089.26105915 235.91141354 -1086.5474673 235.88476521 -1083.80859375 235.90234375 C-1082.98875504 235.9037587 -1082.16891632 235.90517365 -1081.32423401 235.90663147 C-1078.69528618 235.91224711 -1076.06642227 235.92480221 -1073.4375 235.9375 C-1071.65950643 235.94251299 -1069.88151154 235.94707624 -1068.10351562 235.95117188 C-1063.73564455 235.96222161 -1059.36783652 235.97949669 -1055 236 C-1054.04445446 238.56214257 -1053.92890269 239.77641916 -1054.76928711 242.41918945 C-1055.1844458 243.30823975 -1055.59960449 244.19729004 -1056.02734375 245.11328125 C-1056.48592773 246.10650391 -1056.94451172 247.09972656 -1057.41699219 248.12304688 C-1057.91875977 249.17556641 -1058.42052734 250.22808594 -1058.9375 251.3125 C-1059.44313477 252.39466797 -1059.94876953 253.47683594 -1060.46972656 254.59179688 C-1063.81745657 261.69432728 -1067.39726103 268.62214054 -1071.171875 275.50390625 C-1073.46899299 279.89689899 -1075.4171882 284.3953399 -1077.35864258 288.95336914 C-1079.68767101 294.38601387 -1082.27089814 299.65628943 -1084.94702148 304.92504883 C-1087.40971674 309.78461724 -1089.76079175 314.68728514 -1092.0625 319.625 C-1094.41270757 324.66091661 -1096.80779689 329.66330241 -1099.3125 334.625 C-1106.23610395 348.36130349 -1112.76667719 362.29759877 -1119.25 376.24609375 C-1128.34217975 395.78472069 -1128.34217975 395.78472069 -1132.5 404 C-1134.93418112 408.82580662 -1137.28750999 413.68930083 -1139.625 418.5625 C-1140.20217773 419.75069336 -1140.20217773 419.75069336 -1140.79101562 420.96289062 C-1143.28903531 426.19787102 -1145.29809864 431.45517561 -1147 437 C-1143.32421877 434.17399615 -1140.09596631 431.14403679 -1136.875 427.8125 C-1132.48038473 423.33530435 -1127.86159631 419.35559307 -1122.94921875 415.4453125 C-1119.50474409 412.58936397 -1116.25492387 409.56792011 -1113 406.5 C-1108.07781754 401.87064613 -1103.05226802 397.47142194 -1097.77734375 393.2421875 C-1094.64146001 390.71054578 -1091.56872546 388.11221713 -1088.5 385.5 C-1082.72499381 380.59392032 -1076.87696601 375.78357699 -1071 371 C-1070.071875 370.236875 -1069.14375 369.47375 -1068.1875 368.6875 C-1045.45945946 350 -1045.45945946 350 -1042 350 C-1042 312.71 -1042 275.42 -1042 237 C-1038.46328121 240.53671879 -1035.99536353 243.91271488 -1033.4375 248.125 C-1033.0142041 248.81352051 -1032.5909082 249.50204102 -1032.15478516 250.21142578 C-1031.24689987 251.68967899 -1030.34137626 253.16938475 -1029.43798828 254.65039062 C-1027.93743723 257.1022248 -1026.4212475 259.54387319 -1024.90234375 261.984375 C-1023.89289065 263.61437374 -1022.88376841 265.24457743 -1021.875 266.875 C-1021.1468811 268.04313232 -1021.1468811 268.04313232 -1020.40405273 269.23486328 C-1019.95876221 269.95915527 -1019.51347168 270.68344727 -1019.0546875 271.4296875 C-1018.65749512 272.07147949 -1018.26030273 272.71327148 -1017.85107422 273.37451172 C-1017 275 -1017 275 -1017 277 C-1016.34 277 -1015.68 277 -1015 277 C-1013.95019531 278.41772461 -1013.95019531 278.41772461 -1012.828125 280.40234375 C-1012.41385254 281.12381592 -1011.99958008 281.84528809 -1011.57275391 282.58862305 C-1010.91799072 283.75131714 -1010.91799072 283.75131714 -1010.25 284.9375 C-1009.34829439 286.5063251 -1008.44466257 288.07404473 -1007.5390625 289.640625 C-1006.88405762 290.77467773 -1006.88405762 290.77467773 -1006.21582031 291.93164062 C-1003.97927108 295.73646897 -1001.5191976 299.37865344 -999 303 C-995 308.75 -995 308.75 -995 311 C-992.75176918 311.82361172 -992.75176918 311.82361172 -990 312 C-987.37841181 310.6574864 -987.37841181 310.6574864 -984.875 308.5625 C-983.92625 307.82773437 -982.9775 307.09296875 -982 306.3359375 C-980.515 305.17964844 -980.515 305.17964844 -979 304 C-976.04619168 301.91018061 -973.08380091 299.83330573 -970.1171875 297.76171875 C-967.74003091 296.09837951 -967.74003091 296.09837951 -967 293 C-966.35417969 292.94070313 -965.70835937 292.88140625 -965.04296875 292.8203125 C-960.63926313 291.63317748 -957.15235206 289.28982615 -953.3125 286.875 C-952.50522461 286.37436035 -951.69794922 285.8737207 -950.86621094 285.35791016 C-945.9636121 282.29650077 -941.17669654 279.11670819 -936.48046875 275.74609375 C-928.37822436 270.04262408 -920.02580026 264.81083012 -911.20703125 260.2890625 C-908.31373359 258.59917183 -906.49999345 256.9999869 -905 254 C-904.20207031 253.91234375 -903.40414063 253.8246875 -902.58203125 253.734375 C-897.33690466 252.65903825 -893.25756961 249.9668142 -888.6875 247.25 C-886.87918444 246.19223262 -885.07059306 245.1349366 -883.26171875 244.078125 C-882.37959717 243.55943848 -881.49747559 243.04075195 -880.58862305 242.50634766 C-877.43189324 240.66941255 -874.24171806 238.89850538 -871.04370117 237.13476562 C-868.10959381 235.50560173 -865.21373553 233.81184623 -862.3125 232.125 C-856.58691739 228.82819386 -850.75469398 225.82558584 -844.82421875 222.91015625 C-840.38039906 220.71116481 -836.00549673 218.38437387 -831.625 216.0625 C-823.7786891 211.91096309 -815.87626711 207.89235763 -807.92089844 203.95458984 C-806.02950147 203.01466075 -804.14294609 202.06570237 -802.2578125 201.11328125 C-762.68705575 181.13893566 -722.09239971 163.56863113 -681 147 C-679.99420898 146.59330078 -678.98841797 146.18660156 -677.95214844 145.76757812 C-675.40660815 144.73835427 -672.86005758 143.71171948 -670.3125 142.6875 C-669.54510498 142.37893066 -668.77770996 142.07036133 -667.98706055 141.75244141 C-663.81127458 140.08532447 -659.61842816 138.47664204 -655.40234375 136.9140625 C-654.4589917 136.56255127 -653.51563965 136.21104004 -652.54370117 135.84887695 C-650.74869864 135.18298639 -648.95087777 134.52461792 -647.1496582 133.87573242 C-639.17415739 130.91861255 -632.8204523 127.29060193 -627 121 C-625.91627185 119.88589641 -624.82878168 118.7754444 -623.73828125 117.66796875 C-623.17689453 117.09755859 -622.61550781 116.52714844 -622.03710938 115.93945312 C-621.18342773 115.07223633 -621.18342773 115.07223633 -620.3125 114.1875 C-619.73177734 113.59001953 -619.15105469 112.99253906 -618.55273438 112.37695312 C-617.07274424 110.87985327 -615.54017218 109.43511269 -614 108 C-613.34 108 -612.68 108 -612 108 C-609.525 112.95 -609.525 112.95 -607 118 C-605.55625 117.71125 -604.1125 117.4225 -602.625 117.125 C-601.81289063 116.96257812 -601.00078125 116.80015625 -600.1640625 116.6328125 C-597.81326077 116.13341068 -597.81326077 116.13341068 -596 114 C-596.27714844 113.14277344 -596.55429687 112.28554687 -596.83984375 111.40234375 C-603.01565296 91.90788551 -601.63247342 74.88010141 -592.69140625 56.27734375 C-583.64283601 40.10270402 -569.48601658 29.555471 -552.03125 24.06640625 C-533.28627425 18.91153792 -515.24826492 21.32692241 -498 30 C-482.27788094 39.57601955 -472.71161701 53.01825763 -466 70 C-465.67 71.65 -465.34 73.3 -465 75 C-460.71 74.01 -456.42 73.02 -452 72 C-456.90931523 58.41707047 -456.90931523 58.41707047 -463.93359375 45.84765625 C-465 44 -465 44 -465 41 C-461.1267676 40.70855806 -457.25308239 40.42413007 -453.37890625 40.14550781 C-451.43203508 40.00414144 -449.48554058 39.85761711 -447.5390625 39.7109375 C-423.50831653 37.99445565 -423.50831653 37.99445565 -419 41 C-419.42667969 41.35449219 -419.85335937 41.70898438 -420.29296875 42.07421875 C-425.6981483 46.67697989 -430.67950251 51.62663834 -435.60620117 56.73120117 C-437.03468756 58.19038478 -438.51356736 59.59988994 -440 61 C-440.66 61 -441.32 61 -442 61 C-442.33 61.99 -442.66 62.98 -443 64 C-444.6459651 65.68711423 -446.31237149 67.3545622 -448 69 C-448.33 69.66 -448.66 70.32 -449 71 C-447.9493335 70.702146 -446.89866699 70.40429199 -445.81616211 70.09741211 C-433.78279388 66.70805588 -421.69323253 63.58291569 -409.5625 60.5625 C-408.59656921 60.32155609 -407.63063843 60.08061218 -406.63543701 59.83236694 C-392.31110479 56.26404949 -377.9757171 52.81694643 -363.53417969 49.75097656 C-361.00255167 49.21303184 -358.47203638 48.67108384 -355.94238281 48.12402344 C-296.69037728 35.31601246 -237.17428137 25.22433637 -177.07188416 17.33480835 C-170.32611335 16.44764866 -163.58650771 15.52819332 -156.8515625 14.5625 C-131.63066926 10.98158832 -106.30081076 8.90071752 -80.9168396 6.82878113 C-71.32106089 6.0404831 -61.73814135 5.14235696 -52.15560913 4.20846558 C-47.2521249 3.73425731 -42.34571287 3.2969887 -37.4375 2.875 C-36.48810547 2.78863281 -35.53871094 2.70226563 -34.56054688 2.61328125 C-28.45760872 2.09123766 -22.44558921 1.94734796 -16.32055664 2.06689453 C-14.03798944 2.26680208 -14.03798944 2.26680208 -13 1 C-11.37747508 0.90113647 -9.75052727 0.87028833 -8.125 0.875 C-7.24070312 0.87242188 -6.35640625 0.86984375 -5.4453125 0.8671875 C-3 1 -3 1 0 2 C0 1.34 0 0.68 0 0 Z " fill="#897E7D" transform="translate(1262,33)"/>
<path d="M0 0 C1.12651474 0.00303635 1.12651474 0.00303635 2.27578735 0.00613403 C3.42828476 0.00469894 3.42828476 0.00469894 4.60406494 0.00323486 C6.23324668 0.00255296 7.86243112 0.00440793 9.49160767 0.00857544 C11.9848341 0.01390906 14.47787917 0.00863836 16.97109985 0.00222778 C18.55182942 0.00288885 20.13255887 0.0041706 21.71328735 0.00613403 C22.46024872 0.0041098 23.20721008 0.00208557 23.97680664 0 C27.12926518 0.01425133 29.61391185 0.1344672 32.62734985 1.13894653 C33.95187528 3.20679685 35.08227476 5.2074783 36.18984985 7.38894653 C36.70539429 8.37846313 36.70539429 8.37846313 37.23135376 9.38796997 C40.57415129 15.87684222 43.66794482 22.48519151 46.7718811 29.09060669 C49.97399466 35.86947132 53.40660373 42.49642962 56.94277954 49.10574341 C60.29507647 55.41006301 63.35872758 61.82464686 66.37368774 68.29568481 C68.65288698 73.16019177 71.05553776 77.92310764 73.62734985 82.63894653 C77.081567 88.97740921 80.1975484 95.44498751 83.25210571 101.98440552 C86.12849808 108.13235758 89.13109098 114.20686117 92.2406311 120.24026489 C94.62734985 124.92627904 94.62734985 124.92627904 94.62734985 127.13894653 C95.94734985 127.13894653 97.26734985 127.13894653 98.62734985 127.13894653 C98.87791138 126.6022937 99.1284729 126.06564087 99.3866272 125.51272583 C104.33912615 114.93504155 109.43067088 104.47455484 114.94082642 94.17581177 C118.29378972 87.87026843 121.35813881 81.45450989 124.37368774 74.98220825 C126.65288698 70.11770129 129.05553776 65.35478542 131.62734985 60.63894653 C134.65708096 55.07941257 137.43942022 49.43393811 140.12734985 43.70144653 C145.6662903 31.88866356 151.48001766 20.24273312 157.56484985 8.70144653 C157.95479126 7.96071899 158.34473267 7.21999146 158.74649048 6.45681763 C161.50425866 1.26203773 161.50425866 1.26203773 162.62734985 0.13894653 C165.3662907 0.05036008 168.07988255 0.02371174 170.8187561 0.04129028 C171.63859482 0.04270523 172.45843353 0.04412018 173.30311584 0.045578 C175.93206368 0.05119364 178.56092759 0.06374874 181.18984985 0.07644653 C182.96784342 0.08145952 184.74583831 0.08602278 186.52383423 0.09011841 C190.8917053 0.10116815 195.25951333 0.11844322 199.62734985 0.13894653 C200.5828954 2.7010891 200.69844716 3.91536569 199.85806274 6.55813599 C199.44290405 7.44718628 199.02774536 8.33623657 198.6000061 9.25222778 C198.14142212 10.24545044 197.68283813 11.2386731 197.21035767 12.26199341 C196.70859009 13.31451294 196.20682251 14.36703247 195.68984985 15.45144653 C195.18421509 16.5336145 194.67858032 17.61578247 194.15762329 18.73074341 C190.80989329 25.83327381 187.23008882 32.76108708 183.45547485 39.64285278 C181.15835686 44.03584552 179.21016166 48.53428644 177.26870728 53.09231567 C174.93967885 58.5249604 172.35645171 63.79523596 169.68032837 69.06399536 C167.21763311 73.92356377 164.8665581 78.82623167 162.56484985 83.76394653 C160.21464228 88.79986315 157.81955296 93.80224894 155.31484985 98.76394653 C148.3912459 112.50025003 141.86067266 126.4365453 135.37734985 140.38504028 C126.2851701 159.92366722 126.2851701 159.92366722 122.12734985 168.13894653 C119.69316874 172.96475315 117.33983986 177.82824736 115.00234985 182.70144653 C114.42517212 183.88963989 114.42517212 183.88963989 113.83633423 185.10183716 C111.33831454 190.33681755 109.32925121 195.59412214 107.62734985 201.13894653 C111.30313108 198.31294269 114.53138355 195.28298333 117.75234985 191.95144653 C122.14696512 187.47425089 126.76575354 183.49453961 131.6781311 179.58425903 C135.12260576 176.72831051 138.37242599 173.70686665 141.62734985 170.63894653 C146.54953232 166.00959266 151.57508183 161.61036847 156.8500061 157.38113403 C159.98588984 154.84949231 163.05862439 152.25116367 166.12734985 149.63894653 C171.90235605 144.73286685 177.75038384 139.92252352 183.62734985 135.13894653 C184.55547485 134.37582153 185.48359985 133.61269653 186.43984985 132.82644653 C209.16789039 114.13894653 209.16789039 114.13894653 212.62734985 114.13894653 C212.62734985 76.84894653 212.62734985 39.55894653 212.62734985 1.13894653 C216.16406864 4.67566532 218.63198633 8.05166141 221.18984985 12.26394653 C221.61314575 12.95246704 222.03644165 13.64098755 222.4725647 14.35037231 C223.38044998 15.82862552 224.28597359 17.30833129 225.18936157 18.78933716 C226.68991262 21.24117133 228.20610235 23.68281972 229.7250061 26.12332153 C230.7344592 27.75332027 231.74358144 29.38352397 232.75234985 31.01394653 C233.23776245 31.79270142 233.72317505 32.5714563 234.22329712 33.37380981 C234.66858765 34.09810181 235.11387817 34.8223938 235.57266235 35.56863403 C235.96985474 36.21042603 236.36704712 36.85221802 236.77627563 37.51345825 C237.62734985 39.13894653 237.62734985 39.13894653 237.62734985 41.13894653 C238.28734985 41.13894653 238.94734985 41.13894653 239.62734985 41.13894653 C240.67715454 42.55667114 240.67715454 42.55667114 241.79922485 44.54129028 C242.42063354 45.62349854 242.42063354 45.62349854 243.05459595 46.72756958 C243.49110474 47.50269897 243.92761353 48.27782837 244.37734985 49.07644653 C245.27905547 50.64527163 246.18268729 52.21299127 247.08828735 53.77957153 C247.74329224 54.91362427 247.74329224 54.91362427 248.41152954 56.07058716 C250.64807878 59.8754155 253.10815225 63.51759998 255.62734985 67.13894653 C259.62734985 72.88894653 259.62734985 72.88894653 259.62734985 75.13894653 C260.61734985 75.46894653 261.60734985 75.79894653 262.62734985 76.13894653 C264.04987209 78.37058306 265.32673129 80.55892532 266.56484985 82.88894653 C268.95545395 87.32929789 271.42223429 91.21636786 274.62734985 95.13894653 C275.7171936 97.09597778 275.7171936 97.09597778 276.56484985 98.95144653 C278.62785475 103.22821437 281.0516402 107.15413363 283.62734985 111.13894653 C284.28863892 112.17019653 284.94992798 113.20144653 285.6312561 114.26394653 C287.15979705 116.64721017 288.69131016 119.02852841 290.2250061 121.40847778 C291.81947584 123.88292349 293.41058296 126.35947342 294.9984436 128.83816528 C295.77053169 130.0426227 296.54266648 131.24705019 297.31484985 132.45144653 C297.69133667 133.03917847 298.06782349 133.6269104 298.45571899 134.23245239 C300.53056572 137.46278277 302.64899659 140.65663004 304.81484985 143.82644653 C307.02813894 147.09135363 308.87092556 150.45209473 310.68984985 153.95144653 C312.81422704 157.95357136 314.68178606 160.70198066 318.62734985 163.13894653 C322.7932418 156.91533946 326.91791082 150.66630322 331.00234985 144.38894653 C331.56961792 143.51786255 332.13688599 142.64677856 332.72134399 141.7492981 C335.90951374 136.83743755 339.02890796 131.89620329 342.06484985 126.88894653 C344.15108433 123.45125199 346.27742663 120.18235725 348.75234985 117.01394653 C350.9583067 114.18613125 352.68036071 111.30763113 354.3500061 108.13504028 C357.63454085 102.03692254 361.2432746 96.18152643 364.93984985 90.32644653 C365.59557983 89.28198364 366.25130981 88.23752075 366.9269104 87.16140747 C371.22778686 80.32197007 375.57331844 73.51312036 379.9906311 66.74832153 C381.60714934 64.26572637 381.60714934 64.26572637 382.6781311 62.02957153 C383.75918161 59.87636806 385.07011997 58.07708847 386.50234985 56.13894653 C390.77317401 50.13477533 394.45712935 43.80387291 398.2093811 37.46731567 C401.30221929 32.27054899 404.53774656 27.27777606 408.09609985 22.38504028 C411.37856246 17.57020356 414.02393755 12.34577114 416.62734985 7.13894653 C418.2703018 5.77649857 419.93559323 4.44029778 421.62734985 3.13894653 C422.89880648 6.95331641 422.76525626 10.52949576 422.7543335 14.50335693 C422.75589349 15.36684419 422.75745348 16.23033145 422.75906074 17.11998498 C422.7630614 20.02427189 422.7598847 22.92850686 422.75674438 25.83279419 C422.75809882 27.91040579 422.75987899 29.98801715 422.76205444 32.06562805 C422.76662319 37.71616975 422.76484164 43.36669325 422.76167536 49.01723528 C422.75914957 54.91981589 422.76148985 60.82239491 422.76306152 66.72497559 C422.76488229 76.63640626 422.76247904 86.54782949 422.75772095 96.45925903 C422.75227551 107.93536399 422.75404341 119.41145119 422.75954735 130.88755572 C422.76407755 140.72534387 422.76472958 150.56312665 422.76210868 160.4009155 C422.76054578 166.28347081 422.76035257 172.16601776 422.76364517 178.04857254 C422.76652263 183.57572834 422.76455051 189.10286112 422.75875092 194.63001442 C422.75742277 196.66464385 422.75781834 198.6992752 422.76001358 200.73390388 C422.76272289 203.49879702 422.7593467 206.26361513 422.7543335 209.02850342 C422.75656422 209.84453431 422.75879494 210.6605652 422.76109326 211.5013243 C422.74149989 217.0247965 422.74149989 217.0247965 421.62734985 218.13894653 C419.20244614 218.25217087 416.80708123 218.30311529 414.3812561 218.30691528 C413.65494492 218.31024368 412.92863373 218.31357208 412.18031311 218.31700134 C410.6410994 218.32207328 409.10187465 218.32440959 407.56265259 218.32424927 C405.20317515 218.32643419 402.84416625 218.34458219 400.48477173 218.36355591 C398.99193479 218.36649005 397.49909563 218.36847471 396.0062561 218.36941528 C395.29788101 218.3766008 394.58950592 218.38378632 393.85966492 218.39118958 C388.85617323 218.36776991 388.85617323 218.36776991 386.62734985 216.13894653 C386.40953491 213.24863169 386.31590902 210.45133837 386.3085022 207.55838013 C386.29845657 206.67051315 386.28841095 205.78264618 386.27806091 204.86787415 C386.24709619 201.92438421 386.23015699 198.98098576 386.21328735 196.03738403 C386.19458638 193.99999192 386.17501379 191.96260763 386.15460205 189.92523193 C386.10316165 184.55602627 386.06359979 179.18679545 386.02645874 173.81747437 C385.98649357 168.34123453 385.93536717 162.86510037 385.88516235 157.38894653 C385.78826215 146.63902063 385.70390263 135.88903523 385.62734985 125.13894653 C383.25497914 128.04654722 381.15662416 130.69807935 379.62734985 134.13894653 C378.96734985 134.13894653 378.30734985 134.13894653 377.62734985 134.13894653 C377.22709595 135.22369263 377.22709595 135.22369263 376.8187561 136.33035278 C375.62417337 139.14643469 374.2336119 141.51610004 372.56484985 144.07644653 C371.94223267 145.03808716 371.31961548 145.99972778 370.6781311 146.99050903 C370.00137329 148.02949341 369.32461548 149.06847778 368.62734985 150.13894653 C367.54354258 151.82486897 366.45976971 153.51081424 365.37759399 155.19778442 C364.23575941 156.97730228 363.09199989 158.75556859 361.94766235 160.53347778 C360.04687689 163.48679726 358.14716151 166.44080197 356.24819946 169.39529419 C355.49921076 170.56046023 354.75002362 171.72549873 354.00064087 172.89041138 C352.13403694 175.79240033 350.27028413 178.69614211 348.4125061 181.60379028 C344.18342377 188.21557223 339.89242926 194.77971168 335.5140686 201.29373169 C333.18506125 204.76825625 330.89878982 208.26512487 328.6546936 211.79519653 C327.9129187 212.95861572 327.9129187 212.95861572 327.15615845 214.14553833 C326.19685894 215.65412706 325.24254398 217.16589993 324.29385376 218.68118286 C323.85863403 219.36462769 323.42341431 220.04807251 322.9750061 220.75222778 C322.4027832 221.66162109 322.4027832 221.66162109 321.81900024 222.58938599 C320.62734985 224.13894653 320.62734985 224.13894653 317.62734985 226.13894653 C317.62734985 225.47894653 317.62734985 224.81894653 317.62734985 224.13894653 C317.04082642 223.90691528 316.45430298 223.67488403 315.8500061 223.43582153 C309.89555915 219.96152208 306.61069056 212.10562794 303.62734985 206.13894653 C301.96413536 203.67476296 300.23998981 201.25879692 298.5140686 198.83816528 C296.66223319 196.18885209 294.91383795 193.49786816 293.18984985 190.76394653 C290.58585251 186.64586024 287.97310608 182.5347968 285.31484985 178.45144653 C284.65871704 177.43695435 284.00258423 176.42246216 283.3265686 175.37722778 C282.76582642 174.63859497 282.20508423 173.89996216 281.62734985 173.13894653 C279.39866457 172.91072138 279.39866457 172.91072138 277.56484985 175.07644653 C276.58356859 176.09524737 275.60477517 177.11644577 274.62734985 178.13894653 C269.76019784 183.10827159 264.83870752 187.90898717 259.5531311 192.43191528 C256.89962314 194.78401057 254.43616886 197.30292683 251.9750061 199.85379028 C250.62734985 201.13894653 250.62734985 201.13894653 249.62734985 201.13894653 C249.29734985 206.74894653 248.96734985 212.35894653 248.62734985 218.13894653 C237.07734985 218.13894653 225.52734985 218.13894653 213.62734985 218.13894653 C213.29734985 217.47894653 212.96734985 216.81894653 212.62734985 216.13894653 C197.79814109 216.11560714 182.96893476 216.09796223 168.13971138 216.08713436 C161.2545625 216.08197362 154.36942501 216.07493513 147.48428345 216.06350708 C140.84480692 216.05249202 134.20533916 216.04666879 127.56585312 216.04406929 C125.02761524 216.04221581 122.48937803 216.03859666 119.95114517 216.03321648 C116.40716376 216.02600048 112.86323192 216.02495583 109.31924438 216.02542114 C108.26045074 216.02182587 107.2016571 216.01823059 106.11077881 216.01452637 C105.14881592 216.01590103 104.18685303 216.0172757 103.19573975 216.01869202 C102.35690813 216.01777022 101.51807652 216.01684843 100.65382576 216.0158987 C98.55800255 216.01021119 98.55800255 216.01021119 96.62734985 217.13894653 C93.54630133 212.64941868 91.27669156 208.456483 89.43984985 203.32644653 C87.3477218 197.63375955 84.75970831 192.40889155 81.87734985 187.07644653 C77.87358748 179.6595308 74.29208867 172.14209128 70.89102173 164.43215942 C67.69179504 157.20335613 64.21613861 150.14122604 60.62515259 143.10061646 C56.83166576 135.64266033 53.16147751 128.13109184 49.56484985 120.57644653 C48.59758855 118.54901374 47.63013367 116.5216733 46.6625061 114.49441528 C46.16508911 113.45204712 45.66767212 112.40967896 45.15518188 111.33572388 C42.61275246 106.01604173 40.05676459 100.70288096 37.50234985 95.38894653 C33.91336796 87.92206854 30.34785558 80.44496084 26.81484985 72.95144653 C24.35273208 67.73270965 21.85034021 62.5419345 19.25234985 57.38894653 C15.20819358 49.36601296 11.35079659 41.25558514 7.4906311 33.14285278 C5.58729096 29.14277804 3.66728204 25.15140312 1.7328186 21.16629028 C1.27367065 20.21568726 0.81452271 19.26508423 0.34146118 18.28567505 C-0.53060615 16.48064672 -1.40686305 14.67763459 -2.28793335 12.87698364 C-2.67940552 12.06366577 -3.07087769 11.2503479 -3.47421265 10.41238403 C-3.81790894 9.70517212 -4.16160522 8.99796021 -4.51571655 8.26931763 C-5.47017823 5.89648783 -6.02093621 3.67096374 -6.37265015 1.13894653 C-4.62130101 -0.61240261 -2.33296712 0.01064288 0 0 Z " fill="#323436" transform="translate(7.372650146484375,268.8610534667969)"/>
<path d="M0 0 C3 1 3 1 4.63476562 3.76196289 C5.23587049 4.99373932 5.82554475 6.23113233 6.40625 7.47265625 C6.72742798 8.13885986 7.04860596 8.80506348 7.3795166 9.49145508 C8.42978504 11.67712497 9.46502175 13.86955374 10.5 16.0625 C11.2219573 17.57316952 11.94461801 19.08350307 12.66796875 20.59350586 C17.3294527 30.35162658 21.87026401 40.16337395 26.33789062 50.01171875 C29.08164033 56.0488008 31.93850824 62.00727254 34.94335938 67.91821289 C37.89294196 73.73286923 40.69953568 79.61229695 43.5 85.5 C46.66787054 92.15713497 49.86419366 98.79398982 53.1875 105.375 C56.53430674 112.00875875 59.71770134 118.71026244 62.86328125 125.44140625 C65.23572466 130.51564403 67.64917429 135.57011017 70.0625 140.625 C72.94946116 146.67277995 75.81156717 152.73019613 78.625 158.8125 C83.01173126 168.23776456 87.44724761 177.70186346 92.6875 186.6875 C94.71728621 190.22940882 96.14085914 193.86199369 97.5625 197.6875 C99.27316586 202.28155233 100.86536018 206.21681401 104 210 C104.66 210 105.32 210 106 210 C144 210 182 210 220 210 C220.33 210.99 220.66 211.98 221 213 C232.55 213 244.1 213 256 213 C256 206.73 256 200.46 256 194 C256.99 194 257.98 194 259 194 C261.00007386 192.19548892 262.84053388 190.38803701 264.6875 188.4375 C265.76504358 187.32889532 266.84447063 186.2221182 267.92578125 185.1171875 C268.45123535 184.57932617 268.97668945 184.04146484 269.51806641 183.48730469 C273.04941757 179.94315456 276.8741424 176.73200452 280.75 173.57421875 C283.31584638 171.48330067 285.14360637 169.78459045 287 167 C291.06347656 168.35449219 292.29488145 171.0447492 294.5 174.5 C295.14497437 175.48867065 295.14497437 175.48867065 295.80297852 176.49731445 C297.21055761 178.65945115 298.60585616 180.82917962 300 183 C301.49372303 185.31319268 302.98882792 187.62548628 304.484375 189.9375 C305.43610278 191.41114302 306.38541581 192.88634904 307.33203125 194.36328125 C309.45548108 197.66782151 311.62859047 200.86660603 314 204 C314.96702146 205.70840458 315.93367102 207.41702882 316.89453125 209.12890625 C319.47266384 213.49260063 322.34462254 217.48236141 326 221 C325.67 221.66 325.34 222.32 325 223 C217.75 223 110.5 223 0 223 C0 149.41 0 75.82 0 0 Z " fill="#FCFCFC" transform="translate(0,274)"/>
<path d="M0 0 C1.12651474 0.00303635 1.12651474 0.00303635 2.27578735 0.00613403 C3.42828476 0.00469894 3.42828476 0.00469894 4.60406494 0.00323486 C6.23324668 0.00255296 7.86243112 0.00440793 9.49160767 0.00857544 C11.9848341 0.01390906 14.47787917 0.00863836 16.97109985 0.00222778 C18.55182942 0.00288885 20.13255887 0.0041706 21.71328735 0.00613403 C22.46024872 0.0041098 23.20721008 0.00208557 23.97680664 0 C27.12926518 0.01425133 29.61391185 0.1344672 32.62734985 1.13894653 C33.95187528 3.20679685 35.08227476 5.2074783 36.18984985 7.38894653 C36.70539429 8.37846313 36.70539429 8.37846313 37.23135376 9.38796997 C40.57415129 15.87684222 43.66794482 22.48519151 46.7718811 29.09060669 C49.97399466 35.86947132 53.40660373 42.49642962 56.94277954 49.10574341 C60.29507647 55.41006301 63.35872758 61.82464686 66.37368774 68.29568481 C68.65288698 73.16019177 71.05553776 77.92310764 73.62734985 82.63894653 C77.081567 88.97740921 80.1975484 95.44498751 83.25210571 101.98440552 C86.12849808 108.13235758 89.13109098 114.20686117 92.2406311 120.24026489 C94.62734985 124.92627904 94.62734985 124.92627904 94.62734985 127.13894653 C95.94734985 127.13894653 97.26734985 127.13894653 98.62734985 127.13894653 C98.87791138 126.6022937 99.1284729 126.06564087 99.3866272 125.51272583 C104.33912615 114.93504155 109.43067088 104.47455484 114.94082642 94.17581177 C118.29378972 87.87026843 121.35813881 81.45450989 124.37368774 74.98220825 C126.65288698 70.11770129 129.05553776 65.35478542 131.62734985 60.63894653 C134.65708096 55.07941257 137.43942022 49.43393811 140.12734985 43.70144653 C145.6662903 31.88866356 151.48001766 20.24273312 157.56484985 8.70144653 C157.95479126 7.96071899 158.34473267 7.21999146 158.74649048 6.45681763 C161.50425866 1.26203773 161.50425866 1.26203773 162.62734985 0.13894653 C165.3662907 0.05036008 168.07988255 0.02371174 170.8187561 0.04129028 C171.63859482 0.04270523 172.45843353 0.04412018 173.30311584 0.045578 C175.93206368 0.05119364 178.56092759 0.06374874 181.18984985 0.07644653 C182.96784342 0.08145952 184.74583831 0.08602278 186.52383423 0.09011841 C190.8917053 0.10116815 195.25951333 0.11844322 199.62734985 0.13894653 C200.5828954 2.7010891 200.69844716 3.91536569 199.85806274 6.55813599 C199.44290405 7.44718628 199.02774536 8.33623657 198.6000061 9.25222778 C198.14142212 10.24545044 197.68283813 11.2386731 197.21035767 12.26199341 C196.70859009 13.31451294 196.20682251 14.36703247 195.68984985 15.45144653 C195.18421509 16.5336145 194.67858032 17.61578247 194.15762329 18.73074341 C190.80989329 25.83327381 187.23008882 32.76108708 183.45547485 39.64285278 C181.15835686 44.03584552 179.21016166 48.53428644 177.26870728 53.09231567 C174.93967885 58.5249604 172.35645171 63.79523596 169.68032837 69.06399536 C167.21763311 73.92356377 164.8665581 78.82623167 162.56484985 83.76394653 C160.21464228 88.79986315 157.81955296 93.80224894 155.31484985 98.76394653 C148.3912459 112.50025003 141.86067266 126.4365453 135.37734985 140.38504028 C130.7006094 150.43511513 126.00446452 160.47862655 120.9984436 170.36941528 C115.3161529 181.84731873 109.95823042 193.49463093 104.62734985 205.13894653 C103.96734985 205.13894653 103.30734985 205.13894653 102.62734985 205.13894653 C102.52422485 205.84019653 102.42109985 206.54144653 102.31484985 207.26394653 C101.52680713 210.55939793 100.29865223 213.19745434 98.62734985 216.13894653 C97.96734985 216.46894653 97.30734985 216.79894653 96.62734985 217.13894653 C93.54630133 212.64941868 91.27669156 208.456483 89.43984985 203.32644653 C87.3477218 197.63375955 84.75970831 192.40889155 81.87734985 187.07644653 C77.87358748 179.6595308 74.29208867 172.14209128 70.89102173 164.43215942 C67.69179504 157.20335613 64.21613861 150.14122604 60.62515259 143.10061646 C56.83166576 135.64266033 53.16147751 128.13109184 49.56484985 120.57644653 C48.59758855 118.54901374 47.63013367 116.5216733 46.6625061 114.49441528 C46.16508911 113.45204712 45.66767212 112.40967896 45.15518188 111.33572388 C42.61275246 106.01604173 40.05676459 100.70288096 37.50234985 95.38894653 C33.91336796 87.92206854 30.34785558 80.44496084 26.81484985 72.95144653 C24.35273208 67.73270965 21.85034021 62.5419345 19.25234985 57.38894653 C15.20819358 49.36601296 11.35079659 41.25558514 7.4906311 33.14285278 C5.58729096 29.14277804 3.66728204 25.15140312 1.7328186 21.16629028 C1.27367065 20.21568726 0.81452271 19.26508423 0.34146118 18.28567505 C-0.53060615 16.48064672 -1.40686305 14.67763459 -2.28793335 12.87698364 C-2.67940552 12.06366577 -3.07087769 11.2503479 -3.47421265 10.41238403 C-3.81790894 9.70517212 -4.16160522 8.99796021 -4.51571655 8.26931763 C-5.47017823 5.89648783 -6.02093621 3.67096374 -6.37265015 1.13894653 C-4.62130101 -0.61240261 -2.33296712 0.01064288 0 0 Z " fill="#323436" transform="translate(7.372650146484375,268.8610534667969)"/>
<path d="M0 0 C10.57325099 8.63985652 16.52250105 21.96508282 18.33203125 35.29296875 C19.8311049 51.9909836 17.0808709 67.73867977 6.4375 81.171875 C2.0207469 85.81747541 -2.42575535 89.08743585 -8.38671875 91.42578125 C-9.13050781 91.78027344 -9.87429688 92.13476562 -10.640625 92.5 C-18.72051204 95.22394485 -29.45541914 94.42279047 -37.0859375 90.7421875 C-37.84519531 90.30777344 -38.60445312 89.87335938 -39.38671875 89.42578125 C-40.23878906 88.93980469 -41.09085938 88.45382812 -41.96875 87.953125 C-48.47442395 83.82733777 -52.46675002 78.99749354 -56.38671875 72.42578125 C-56.98613281 71.50732422 -56.98613281 71.50732422 -57.59765625 70.5703125 C-64.76770828 58.35965999 -64.70191517 41.41648109 -61.59375 28.00390625 C-57.76222489 15.68047037 -51.31241137 4.48092235 -39.82421875 -2.01171875 C-26.28053165 -8.70935032 -12.84987203 -8.47544751 0 0 Z " fill="#323436" transform="translate(990.38671875,387.57421875)"/>
<path d="M0 0 C11.02919143 7.89398981 17.37698833 20.31882974 19.87109375 33.46484375 C22.14232925 50.46603374 19.84435466 66.44988686 9.55859375 80.52734375 C4.98030232 86.10570284 0.24405494 89.8318085 -6.44140625 92.52734375 C-7.17875 92.88054687 -7.91609375 93.23375 -8.67578125 93.59765625 C-16.84461974 96.34367823 -27.15616085 95.71821428 -34.87890625 92.02734375 C-36.76805364 90.91821469 -38.62430758 89.750944 -40.44140625 88.52734375 C-41.34761719 87.9240625 -42.25382813 87.32078125 -43.1875 86.69921875 C-50.93499662 81.03537278 -56.0046129 73.86838494 -58.44140625 64.52734375 C-58.77785156 63.37621094 -59.11429688 62.22507812 -59.4609375 61.0390625 C-63.53316561 44.59280545 -60.62947844 27.76862529 -52.69140625 13.08984375 C-46.87574744 4.1277644 -38.94962142 -0.96949657 -29.19140625 -4.72265625 C-18.58524312 -6.84388888 -9.30314621 -5.6116578 0 0 Z " fill="#323436" transform="translate(598.44140625,386.47265625)"/>
<path d="M0 0 C0.99 0.495 0.99 0.495 2 1 C2 34 2 67 2 101 C-35.29 101 -72.58 101 -111 101 C-110.25386143 97.26930717 -109.46826597 94.42595393 -108 91 C-107.34 91 -106.68 91 -106 91 C-105.67 89.35 -105.34 87.7 -105 86 C-104.34 86.33 -103.68 86.66 -103 87 C-99.32421877 84.17399615 -96.09596631 81.14403679 -92.875 77.8125 C-88.48038473 73.33530435 -83.86159631 69.35559307 -78.94921875 65.4453125 C-75.50474409 62.58936397 -72.25492387 59.56792011 -69 56.5 C-64.07781754 51.87064613 -59.05226802 47.47142194 -53.77734375 43.2421875 C-50.64146001 40.71054578 -47.56872546 38.11221713 -44.5 35.5 C-38.72499381 30.59392032 -32.87696601 25.78357699 -27 21 C-26.071875 20.236875 -25.14375 19.47375 -24.1875 18.6875 C-16.30163857 12.20356949 -8.35720705 5.86782623 0 0 Z " fill="#8A7F7E" transform="translate(218,383)"/>
<path d="M0 0 C5.81660061 -0.09944869 11.63269792 -0.1717413 17.44995117 -0.21972656 C19.4256249 -0.23974646 21.40124009 -0.26697092 23.37670898 -0.30175781 C26.2291515 -0.35070207 29.08080549 -0.37306525 31.93359375 -0.390625 C32.80584091 -0.41127014 33.67808807 -0.43191528 34.57676697 -0.45318604 C42.50824569 -0.45603811 48.80843774 1.80856913 54.75 7.125 C62.73374439 15.88674269 65.01114966 26.37016502 64.99609375 38.0234375 C64.23389565 49.60236188 60.70231557 57.0903052 52 65 C51.34 65 50.68 65 50 65 C54.53088688 74.27867792 59.23879467 83.37898575 64.43359375 92.3046875 C65.32981664 93.84681667 66.20233117 95.40466233 67 97 C62.17898631 97.07637249 57.40346863 97.04825144 52.59375 96.6875 C51.80162109 96.62949219 51.00949219 96.57148438 50.19335938 96.51171875 C47.54910751 95.89480514 46.28619699 94.90127172 44.375 93 C43.12372532 90.71924849 42.15505735 88.37312642 41.15771484 85.97314453 C37.79787651 76.69037407 37.79787651 76.69037407 31.12792969 70.13183594 C26.52396643 69.11240266 22.85124627 69.60665571 18 70 C18 78.58 18 87.16 18 96 C15.215625 96.020625 12.43125 96.04125 9.5625 96.0625 C8.68408447 96.071604 7.80566895 96.08070801 6.90063477 96.09008789 C4.93354026 96.09723091 2.96646379 96.05031893 1 96 C-0.88885195 94.11114805 -0.12010635 91.35948241 -0.12442017 88.84675598 C-0.12082489 87.9620311 -0.11722961 87.07730621 -0.11352539 86.16577148 C-0.11367142 85.23903625 -0.11381744 84.31230103 -0.1139679 83.35748291 C-0.11326838 80.27866313 -0.10547421 77.19990303 -0.09765625 74.12109375 C-0.09579221 71.99259982 -0.09436824 69.86410547 -0.09336853 67.73561096 C-0.08954228 62.1213768 -0.07971108 56.50716832 -0.06866455 50.89294434 C-0.05845273 45.16886747 -0.0538714 39.44478647 -0.04882812 33.72070312 C-0.03808891 22.48045744 -0.0210112 11.24023085 0 0 Z " fill="#323436" transform="translate(699,256)"/>
<path d="M0 0 C1.15113281 -0.04898437 2.30226563 -0.09796875 3.48828125 -0.1484375 C6.6875 0.375 6.6875 0.375 8.72265625 2.28515625 C9.69525391 3.81462891 9.69525391 3.81462891 10.6875 5.375 C11.13681885 6.0752832 11.5861377 6.77556641 12.04907227 7.49707031 C13.66514096 10.04398004 15.24132937 12.61266724 16.8125 15.1875 C17.97367996 17.07699402 19.13514114 18.96631524 20.296875 20.85546875 C20.86986328 21.7892334 21.44285156 22.72299805 22.03320312 23.68505859 C25.51916751 29.35335192 29.05374908 34.99120216 32.59277344 40.62646484 C33.66388265 42.33727756 34.72657213 44.05335256 35.7890625 45.76953125 C36.41554688 46.77371094 37.04203125 47.77789062 37.6875 48.8125 C38.22375 49.67746094 38.76 50.54242188 39.3125 51.43359375 C40.54825566 53.50180554 40.54825566 53.50180554 42.6875 54.375 C43.0175 36.555 43.3475 18.735 43.6875 0.375 C48.9675 0.375 54.2475 0.375 59.6875 0.375 C62.34196057 3.02946057 61.92383457 4.97902369 61.93634033 8.58920288 C61.9255545 9.89687119 61.9255545 9.89687119 61.91455078 11.23095703 C61.91484283 12.14808472 61.91513489 13.0652124 61.91543579 14.01013184 C61.91403893 17.05112059 61.89846101 20.09186638 61.8828125 23.1328125 C61.87908364 25.23745591 61.87623607 27.34210106 61.87423706 29.44674683 C61.86659064 34.99359914 61.8469335 40.54034717 61.8248291 46.0871582 C61.80439237 51.74428903 61.79524 57.40143667 61.78515625 63.05859375 C61.76368856 74.16410839 61.72954048 85.26954553 61.6875 96.375 C60.92824219 96.36339844 60.16898438 96.35179687 59.38671875 96.33984375 C58.39285156 96.33082031 57.39898438 96.32179688 56.375 96.3125 C54.89580078 96.29509766 54.89580078 96.29509766 53.38671875 96.27734375 C50.58786151 96.25170138 50.58786151 96.25170138 47.6875 97.375 C43.02390652 93.27669058 40.01372617 88.47267099 36.79736328 83.19580078 C35.51611863 81.09383805 34.22480825 78.99819619 32.93359375 76.90234375 C25.13924727 64.21933539 25.13924727 64.21933539 22.54296875 59.453125 C20.87568388 56.19262134 20.87568388 56.19262134 17.6875 54.375 C16.99709426 52.71802621 16.3344365 51.0494239 15.6875 49.375 C14.3675 47.395 13.0475 45.415 11.6875 43.375 C11.3575 60.865 11.0275 78.355 10.6875 96.375 C5.0775 96.375 -0.5325 96.375 -6.3125 96.375 C-8.188088 94.499412 -7.43912979 91.79211282 -7.44802856 89.29632568 C-7.44600433 88.42252258 -7.4439801 87.54871948 -7.44189453 86.6484375 C-7.44364685 85.73306213 -7.44539917 84.81768677 -7.44720459 83.87457275 C-7.45162461 80.83302951 -7.44868459 77.79154389 -7.4453125 74.75 C-7.4459855 72.6463215 -7.44695548 70.54264308 -7.44821167 68.43896484 C-7.44968885 64.02375551 -7.44753345 59.60856637 -7.44287109 55.19335938 C-7.4371738 49.52007439 -7.4404527 43.84683671 -7.44644356 38.17355347 C-7.45004864 33.82771444 -7.44891083 29.48188672 -7.44631577 25.13604736 C-7.44564635 23.0435587 -7.44647543 20.95106903 -7.44879532 18.85858154 C-7.45132098 15.93954734 -7.44748248 13.02059088 -7.44189453 10.1015625 C-7.44391876 9.2277594 -7.44594299 8.3539563 -7.44802856 7.45367432 C-7.42257281 0.31424448 -7.06907212 0.2044448 0 0 Z " fill="#323436" transform="translate(1040.3125,382.625)"/>
<path d="M0 0 C0.71994141 -0.03287109 1.43988281 -0.06574219 2.18164062 -0.09960938 C4.28515625 -0.12109375 4.28515625 -0.12109375 7.9375 0.4375 C11.27557304 4.09211445 12.4030353 9.45141448 13.875 14.125 C15.38362077 18.87044593 16.94700866 23.54443805 18.83984375 28.15234375 C21.39618824 34.43428879 23.45764305 40.86821219 25.5625 47.3125 C28.21493786 55.39420606 30.90788985 63.45414532 33.8125 71.44921875 C34.04456146 72.08925842 34.27662292 72.7292981 34.51571655 73.38873291 C35.62858448 76.45158312 36.75231571 79.50992449 37.88916016 82.56396484 C38.28925293 83.65789551 38.6893457 84.75182617 39.1015625 85.87890625 C39.63450928 87.31278687 39.63450928 87.31278687 40.17822266 88.77563477 C40.94629818 91.46834454 41.08588041 93.65394672 40.9375 96.4375 C38.33271117 96.5184313 35.73043347 96.57795434 33.125 96.625 C32.38701172 96.65013672 31.64902344 96.67527344 30.88867188 96.70117188 C25.46014382 96.7748623 25.46014382 96.7748623 23.03125 95.20703125 C21.76448631 93.15758857 20.97424448 91.23668881 20.25 88.9375 C19.99863281 88.1640625 19.74726562 87.390625 19.48828125 86.59375 C18.9375 84.4375 18.9375 84.4375 18.9375 81.4375 C17.9475 80.9425 17.9475 80.9425 16.9375 80.4375 C16.6075 79.4475 16.2775 78.4575 15.9375 77.4375 C5.3775 77.1075 -5.1825 76.7775 -16.0625 76.4375 C-17.95517449 82.11552347 -19.76648948 87.72881819 -21.4140625 93.46875 C-22.0625 95.4375 -22.0625 95.4375 -23.0625 96.4375 C-25.75904854 96.51069621 -28.42941458 96.52992537 -31.125 96.5 C-31.88361328 96.49548828 -32.64222656 96.49097656 -33.42382812 96.48632812 C-35.30341871 96.4745068 -37.18296899 96.45657078 -39.0625 96.4375 C-40.53321883 91.84220955 -38.9815435 88.40833733 -37.4140625 84.02734375 C-37.12614838 83.19570206 -36.83823425 82.36406036 -36.54159546 81.50721741 C-35.59978978 78.79304284 -34.64361875 76.08416176 -33.6875 73.375 C-33.03658439 71.50626859 -32.38684996 69.63712535 -31.73828125 67.76757812 C-30.76430572 64.96056491 -29.78958413 62.15383889 -28.81085205 59.34848022 C-25.78115351 50.662579 -22.87460085 41.93982548 -19.99707031 33.20239258 C-18.44422577 28.50782404 -16.86238438 23.83378094 -15.1484375 19.1953125 C-14.85710938 18.40253906 -14.56578125 17.60976563 -14.265625 16.79296875 C-13.73804473 15.37198603 -13.20005917 13.95479252 -12.6484375 12.54296875 C-11.25016984 8.7851244 -10.84565734 6.29327854 -12.0625 2.4375 C-8.27368484 -0.02572448 -4.37234891 0.03541957 0 0 Z " fill="#313335" transform="translate(639.0625,255.5625)"/>
<path d="M0 0 C2 3 2 3 1.828125 5.234375 C1.54195313 6.47960937 1.54195313 6.47960937 1.25 7.75 C1.05148437 8.62914062 0.85296875 9.50828125 0.6484375 10.4140625 C-0.15974389 13.63705095 -1.0325137 16.82111644 -2 20 C-2.66 20 -3.32 20 -4 20 C-4 20.66 -4 21.32 -4 22 C-5.65234375 23.23681641 -5.65234375 23.23681641 -7.9375 24.6015625 C-8.74960937 25.09140625 -9.56171875 25.58125 -10.3984375 26.0859375 C-11.68621094 26.84777344 -11.68621094 26.84777344 -13 27.625 C-13.85851562 28.140625 -14.71703125 28.65625 -15.6015625 29.1875 C-17.73056234 30.4648999 -19.86341196 31.73534697 -22 33 C-21.17757812 33.25652344 -20.35515625 33.51304687 -19.5078125 33.77734375 C-9.70942626 37.13776028 -1.77441409 42.19098392 4 51 C7.25791408 60.11170622 6.85548668 69.20414943 3 78 C-0.53107816 84.53903363 -6.08623519 90.14699408 -13.0625 92.9375 C-26.38575121 96.61287964 -38.98097177 93.50350228 -50.75 87 C-53.234375 85.5625 -53.234375 85.5625 -55 84 C-55 82.68 -55 81.36 -55 80 C-55.66 79.67 -56.32 79.34 -57 79 C-56.53980469 78.58878906 -56.07960938 78.17757812 -55.60546875 77.75390625 C-53.86605819 75.85367428 -53.16551467 74.35211825 -52.3125 71.9375 C-51.93544922 70.89916016 -51.93544922 70.89916016 -51.55078125 69.83984375 C-50.90440399 68.00075479 -50.90440399 68.00075479 -51 66 C-46.11421397 67.85911344 -41.56703168 70.24500516 -36.9375 72.66015625 C-31.01012062 75.36373488 -25.08519385 75.77129846 -18.75 74.1875 C-15.36901347 72.72752854 -13.76435697 71.52871393 -12.125 68.25 C-11.92355202 64.62393631 -12.86448721 61.8630692 -15 59 C-17.7771952 57.09356434 -20.83506321 56.10983783 -24 55 C-25.29005002 54.5248078 -26.57903845 54.04672772 -27.8671875 53.56640625 C-28.55296875 53.31076904 -29.23875 53.05513184 -29.9453125 52.79174805 C-33.30043629 51.53705865 -36.65247049 50.27481261 -40 49 C-40.86882812 48.67257812 -41.73765625 48.34515625 -42.6328125 48.0078125 C-48.09742468 45.65989928 -50.77421993 42.35802703 -53 37 C-55.95497956 27.11559336 -55.41108906 17.76929401 -51.2890625 8.32421875 C-47.65854741 1.77829002 -41.97314626 -2.45685254 -35 -5 C-23.17842891 -8.05137989 -10.18211897 -6.72019852 0 0 Z " fill="#323436" transform="translate(507,260)"/>
<path d="M0 0 C2.64590014 -0.02684679 5.29153096 -0.04676357 7.9375 -0.0625 C8.69224609 -0.07087891 9.44699219 -0.07925781 10.22460938 -0.08789062 C12.14994313 -0.09652441 14.07535581 -0.05224333 16 0 C17.71823368 1.71823368 17.14262667 3.99374174 17.15771484 6.33911133 C17.16797699 7.48152786 17.17823914 8.6239444 17.18881226 9.80097961 C17.19611359 11.04872665 17.20341492 12.29647369 17.2109375 13.58203125 C17.23182697 15.53812111 17.25273422 17.49421095 17.27463722 19.45028973 C17.32770225 24.28083413 17.3717105 29.1113932 17.40136719 33.94213867 C17.41840021 36.6439959 17.44323596 39.34557753 17.47622681 42.04728699 C17.50690964 44.58828012 17.52654949 47.12943909 17.53329468 49.67060852 C17.6589961 58.60201945 19.18025755 66.54077265 22 75 C24.42383077 76.16953416 24.42383077 76.16953416 27 77 C27.66 77.33 28.32 77.66 29 78 C33.21019538 78.43011819 36.88692855 78.4699635 40.8125 76.8125 C44.55698314 73.70992826 47.1297483 70.82934266 48 66 C48.10965725 63.90279407 48.16600632 61.80257664 48.18945312 59.70263672 C48.21452942 57.79078079 48.21452942 57.79078079 48.2401123 55.84030151 C48.24679428 55.16227352 48.25347626 54.48424553 48.26036072 53.78567123 C48.28145311 51.65921039 48.30846766 49.53289738 48.33703613 47.40652466 C48.40673597 42.12847286 48.46632759 36.8503159 48.52606201 31.57214355 C48.57696835 27.1059134 48.63176972 22.63976491 48.69187927 18.17364883 C48.71847476 16.07639226 48.73927175 13.97912807 48.7598877 11.88180542 C48.78496399 9.97940598 48.78496399 9.97940598 48.81054688 8.03857422 C48.82307495 6.91812714 48.83560303 5.79768005 48.84851074 4.64328003 C49 2 49 2 50 0 C52.45862401 -0.05383848 54.9160755 -0.09359038 57.375 -0.125 C58.42300781 -0.15013672 58.42300781 -0.15013672 59.4921875 -0.17578125 C61.32897486 -0.19344267 63.16601963 -0.10303261 65 0 C67.623322 2.623322 67.25297874 3.76400123 67.25878906 7.42089844 C67.26509338 8.55678406 67.27139771 9.69266968 67.27789307 10.86297607 C67.2738446 12.09928772 67.26979614 13.33559937 67.265625 14.609375 C67.26753845 15.88290833 67.2694519 17.15644165 67.27142334 18.46856689 C67.27278773 21.17563263 67.27007447 23.8823406 67.26074219 26.58935547 C67.24948427 30.01829726 67.25581639 33.44692119 67.26788712 36.87585068 C67.27697983 40.18288211 67.27054935 43.48983462 67.265625 46.796875 C67.26967346 48.00889587 67.27372192 49.22091675 67.27789307 50.46966553 C67.19728832 65.47631133 65.95666456 79.7113153 55 91 C46.2044344 98.36925767 37.05021827 98.88137334 26 98 C22.59779763 97.15305853 19.93878994 95.89048411 17 94 C16.30519531 93.57589844 15.61039063 93.15179688 14.89453125 92.71484375 C5.79512659 86.58597644 2.56008792 78.93822438 0.31904602 68.47286987 C-1.98978152 56.31723212 -1.45890178 43.94216231 -1.3125 31.625 C-1.30097975 29.10417407 -1.2912032 26.58333955 -1.28320312 24.0625 C-1.26980007 21.65884489 -1.25488297 19.25519764 -1.23828125 16.8515625 C-1.23089432 15.7339151 -1.22350739 14.6162677 -1.21589661 13.4647522 C-1.20306137 12.42531464 -1.19022614 11.38587708 -1.17700195 10.31494141 C-1.16715775 9.40628326 -1.15731354 8.49762512 -1.14717102 7.56143188 C-0.99763025 4.95875581 -0.57294437 2.54028047 0 0 Z " fill="#313335" transform="translate(716,383)"/>
<path d="M0 0 C1.42578125 1.125 1.42578125 1.125 3.05078125 3.9375 C3.51216778 9.77074399 1.57267066 14.78407381 -0.94921875 19.9375 C-3.81477227 18.80864558 -6.63586923 17.63095961 -9.44921875 16.375 C-16.06457656 13.65797804 -22.36987862 12.89021996 -29.26171875 15.1875 C-31.56742736 16.15527325 -32.77651026 16.74320295 -34.44921875 18.625 C-35.20155931 22.1045751 -35.06778935 25.38038186 -34.94921875 28.9375 C-33.881875 29.36095703 -33.881875 29.36095703 -32.79296875 29.79296875 C-29.99916354 30.91739859 -27.22413117 32.07981029 -24.44921875 33.25 C-18.97806507 35.54937237 -13.44615741 37.6281874 -7.859375 39.62890625 C-2.62070469 41.98454995 0.44264298 45.00345077 3.30078125 49.9375 C3.8009375 50.783125 4.30109375 51.62875 4.81640625 52.5 C8.47178834 59.71822287 8.16018947 69.24459302 5.86328125 76.875 C2.47659092 85.42756361 -4.24325033 89.99987228 -12.1875 94.08984375 C-16.03008642 95.26925146 -19.63794543 95.27901266 -23.63671875 95.25 C-24.44109375 95.24436035 -25.24546875 95.2387207 -26.07421875 95.23291016 C-35.87788074 95.03295663 -45.3825976 92.57166885 -52.94921875 85.9375 C-54.65639727 81.6250186 -53.43688785 78.4005073 -52.01171875 74.125 C-51.63144531 72.96355469 -51.25117187 71.80210937 -50.859375 70.60546875 C-50.40884766 69.28482422 -50.40884766 69.28482422 -49.94921875 67.9375 C-46.46810529 68.47397296 -44.25628874 69.20719751 -41.44921875 71.3125 C-34.86325075 75.58279683 -26.61215866 77.8243513 -18.82421875 76.3125 C-15.74659301 75.51115594 -13.88813169 74.49710153 -11.94921875 71.9375 C-11.47586392 69.79663556 -11.47586392 69.79663556 -11.57421875 67.5 C-11.56648438 66.73816406 -11.55875 65.97632813 -11.55078125 65.19140625 C-12.05950236 62.31364073 -12.98004039 61.09519133 -14.94921875 58.9375 C-17.45695348 57.72050342 -17.45695348 57.72050342 -20.359375 56.89453125 C-21.96208252 56.37403198 -21.96208252 56.37403198 -23.59716797 55.84301758 C-25.28737061 55.30197388 -25.28737061 55.30197388 -27.01171875 54.75 C-37.54822209 51.17487498 -45.90284709 48.07537524 -51.62109375 37.98828125 C-55.38971553 29.33153534 -54.01364108 20.62002994 -50.94921875 11.9375 C-48.13320966 6.40977845 -43.8205797 2.66318902 -38.94921875 -1.0625 C-38.376875 -1.50207031 -37.80453125 -1.94164062 -37.21484375 -2.39453125 C-26.82482987 -8.8997833 -10.04169444 -5.47362903 0 0 Z " fill="#323436" transform="translate(1179.94921875,386.0625)"/>
<path d="M0 0 C0.78375 0.639375 1.5675 1.27875 2.375 1.9375 C2.375 2.5975 2.375 3.2575 2.375 3.9375 C3.365 4.2675 4.355 4.5975 5.375 4.9375 C3.725 9.8875 2.075 14.8375 0.375 19.9375 C-5.625 17.9375 -5.625 17.9375 -9.1875 16.375 C-15.68148879 13.65933196 -21.56620596 12.96888189 -28.375 15.125 C-31.9213537 17.10277418 -33.21671532 18.15273492 -34.625 21.9375 C-35.03042699 25.00838857 -35.03042699 25.00838857 -33.625 27.9375 C-28.60734071 32.10298495 -22.9242084 33.96578847 -16.75 35.6875 C-8.67864537 38.16730827 -3.19410107 41.41950544 2.375 47.9375 C2.93832031 48.50597656 3.50164063 49.07445312 4.08203125 49.66015625 C9.11163007 55.74278402 8.18890851 64.46273089 7.61425781 71.90429688 C6.79259319 78.88676926 3.37315499 83.73285603 -1.6875 88.43359375 C-8.54190617 93.75405015 -15.16376874 95.11834809 -23.625 95.125 C-24.44484375 95.13724609 -25.2646875 95.14949219 -26.109375 95.16210938 C-27.29273438 95.16500977 -27.29273438 95.16500977 -28.5 95.16796875 C-29.57894531 95.17413208 -29.57894531 95.17413208 -30.6796875 95.18041992 C-32.625 94.9375 -32.625 94.9375 -35.625 92.9375 C-37.02298828 92.71513672 -37.02298828 92.71513672 -38.44921875 92.48828125 C-41.91297464 91.88755606 -44.35305849 90.79169548 -47.4375 89.125 C-48.39269531 88.62355469 -49.34789062 88.12210937 -50.33203125 87.60546875 C-52.625 85.9375 -52.625 85.9375 -53.6015625 84.19140625 C-53.6371974 80.76451714 -52.41198215 77.83342803 -51.1875 74.6875 C-50.94451172 74.0378125 -50.70152344 73.388125 -50.45117188 72.71875 C-49.85214006 71.12133183 -49.23985679 69.52889406 -48.625 67.9375 C-45.78797554 68.52904978 -44.43651803 69.07212998 -42 70.8125 C-34.55829289 75.49801929 -26.34513974 76.96891438 -17.625 75.9375 C-13.83234114 74.76841702 -12.88992187 74.33488281 -10.625 70.9375 C-10.28542437 66.86259248 -10.31167514 65.40748729 -12.625 61.9375 C-12.625 60.9475 -12.625 59.9575 -12.625 58.9375 C-13.57246094 58.69966797 -13.57246094 58.69966797 -14.5390625 58.45703125 C-42.57773901 51.14435049 -42.57773901 51.14435049 -50.625 37.9375 C-54.12072518 28.85169448 -53.09463191 19.82095411 -49.625 10.9375 C-45.76070009 3.76094303 -40.58560758 -0.59539901 -33 -3.4375 C-21.91849505 -6.7480996 -9.97569885 -6.20865173 0 0 Z " fill="#323436" transform="translate(509.625,386.0625)"/>
<path d="M0 0 C1.23790787 -0.00315216 2.47581573 -0.00630432 3.75123596 -0.009552 C5.10751379 -0.00776236 6.46379129 -0.00571144 7.82006836 -0.00341797 C9.20486976 -0.00409127 10.58967105 -0.00506152 11.97447205 -0.00631714 C14.87719854 -0.00779238 17.77989427 -0.0056448 20.68261719 -0.00097656 C24.41094181 0.00472595 28.13919453 0.00143734 31.86751652 -0.00454903 C34.72672573 -0.0081548 37.58591777 -0.00701608 40.44512749 -0.00442123 C41.82030686 -0.00375228 43.19548778 -0.00457928 44.57066536 -0.00690079 C46.4885162 -0.00942811 48.40637249 -0.004896 50.32421875 0 C51.41738907 0.00079559 52.51055939 0.00159119 53.63685608 0.00241089 C56.09741211 0.12939453 56.09741211 0.12939453 57.09741211 1.12939453 C57.17071542 3.99408778 57.18959042 6.82833127 57.15991211 9.69189453 C57.13928711 12.47626953 57.11866211 15.26064453 57.09741211 18.12939453 C49.50741211 18.12939453 41.91741211 18.12939453 34.09741211 18.12939453 C34.09741211 43.86939453 34.09741211 69.60939453 34.09741211 96.12939453 C28.48741211 96.12939453 22.87741211 96.12939453 17.09741211 96.12939453 C16.76741211 95.13939453 16.43741211 94.14939453 16.09741211 93.12939453 C15.43741211 92.79939453 14.77741211 92.46939453 14.09741211 92.12939453 C14.09741211 68.03939453 14.09741211 43.94939453 14.09741211 19.12939453 C7.49741211 18.79939453 0.89741211 18.46939453 -5.90258789 18.12939453 C-7.90258789 16.12939453 -7.90258789 16.12939453 -8.09790039 12.65283203 C-8.08460282 11.26988485 -8.06075021 9.88700799 -8.02758789 8.50439453 C-8.01856445 7.79798828 -8.00954102 7.09158203 -8.00024414 6.36376953 C-7.97666392 4.61883355 -7.9407925 2.87407158 -7.90258789 1.12939453 C-5.18384913 -0.22997485 -3.04351419 0.00221341 0 0 Z " fill="#323436" transform="translate(808.902587890625,382.87060546875)"/>
<path d="M0 0 C1.09396591 0.01918991 2.18793182 0.03837982 3.31504822 0.05815125 C4.55295609 0.07509537 5.79086395 0.09203949 7.06628418 0.10949707 C8.42256943 0.13848816 9.77884679 0.16784984 11.13511658 0.19755554 C12.51990529 0.22118366 13.90470708 0.24405697 15.28952026 0.26620483 C18.19238984 0.3147613 21.09502224 0.37013278 23.99766541 0.43070984 C27.725831 0.50830146 31.45407465 0.57263981 35.18256474 0.63236713 C38.04184662 0.67900172 40.90101573 0.73078443 43.7601757 0.784338 C45.13533348 0.80982001 46.51051381 0.83411295 47.88571358 0.85721779 C49.80365763 0.89057819 51.72147112 0.9312089 53.63926697 0.97221375 C55.27902245 1.00457878 55.27902245 1.00457878 56.9519043 1.03759766 C59.41246033 1.20927429 59.41246033 1.20927429 60.41246033 2.20927429 C60.48565654 4.90582283 60.5048857 7.57618887 60.47496033 10.27177429 C60.47044861 11.03038757 60.46593689 11.78900085 60.46128845 12.57060242 C60.44946713 14.450193 60.4315311 16.32974328 60.41246033 18.20927429 C53.84655513 21.49222689 45.75336551 19.20927429 38.41246033 19.20927429 C38.08246033 44.94927429 37.75246033 70.68927429 37.41246033 97.20927429 C31.80246033 97.20927429 26.19246033 97.20927429 20.41246033 97.20927429 C18.40073296 93.18581955 18.17008574 91.69342781 18.20127869 87.36186218 C18.20465744 86.18285843 18.20803619 85.00385468 18.21151733 83.78912354 C18.22497696 82.51624985 18.23843658 81.24337616 18.25230408 79.93193054 C18.26025517 77.91805532 18.26820068 75.90418006 18.27583408 73.89030361 C18.28896348 71.06517778 18.31114796 68.24015119 18.3334198 65.41508484 C18.37649484 59.83344958 18.40659286 54.25177812 18.42946053 48.67002678 C18.43950213 46.73996698 18.456866 44.80994961 18.47445679 42.87994385 C18.51740982 34.93919677 18.1499413 27.11591978 17.41246033 19.20927429 C16.79681213 19.22031189 16.18116394 19.23134949 15.54685974 19.24272156 C13.06462125 19.28459833 10.58242329 19.3091808 8.09996033 19.33427429 C6.778349 19.35941101 6.778349 19.35941101 5.43003845 19.38505554 C4.58247986 19.39150085 3.73492126 19.39794617 2.86167908 19.40458679 C1.69125061 19.42029724 1.69125061 19.42029724 0.49717712 19.43632507 C-1.58753967 19.20927429 -1.58753967 19.20927429 -4.58753967 17.20927429 C-4.58753967 16.21927429 -4.58753967 15.22927429 -4.58753967 14.20927429 C-5.24753967 13.87927429 -5.90753967 13.54927429 -6.58753967 13.20927429 C-5.92753967 13.20927429 -5.26753967 13.20927429 -4.58753967 13.20927429 C-4.6107428 12.43841492 -4.63394592 11.66755554 -4.65785217 10.87333679 C-4.67589905 9.87044617 -4.69394592 8.86755554 -4.71253967 7.83427429 C-4.7357428 6.83653992 -4.75894592 5.83880554 -4.78285217 4.81083679 C-4.51059192 1.18433019 -3.62521716 0.29319927 0 0 Z " fill="#323436" transform="translate(530.5875396728516,254.7907257080078)"/>
<path d="M0 0 C1.37376679 0.00398964 2.74753489 0.01873698 4.12109375 0.04296875 C4.81912109 0.04361328 5.51714844 0.04425781 6.23632812 0.04492188 C11.41828217 0.09015717 11.41828217 0.09015717 12.55859375 1.23046875 C12.67816082 3.59733796 12.73399993 5.93638187 12.74804688 8.3046875 C12.75634018 9.0444986 12.76463348 9.78430969 12.7731781 10.54653931 C12.79061503 12.15784533 12.80577179 13.76917723 12.81895447 15.38052368 C12.83991416 17.92652143 12.86694152 20.47238894 12.89562988 23.01831055 C12.96560428 29.34193503 13.02491876 35.66565194 13.08465576 41.98937988 C13.13550111 47.32920787 13.19030301 52.6689662 13.25047302 58.00869751 C13.27714529 60.52425088 13.29790085 63.03981037 13.31848145 65.55541992 C13.33507762 67.08903312 13.35194885 68.62264337 13.36914062 70.15625 C13.37541725 71.21448471 13.37541725 71.21448471 13.38182068 72.2940979 C13.15073502 75.54327578 13.15073502 75.54327578 14.55859375 78.23046875 C17.05408253 78.37807903 19.52549261 78.46540994 22.0234375 78.51171875 C22.77194473 78.53012817 23.52045197 78.5485376 24.29164124 78.56750488 C26.69304324 78.62643 29.09451759 78.67916224 31.49609375 78.73046875 C34.65119597 78.79802171 37.80606562 78.8717242 40.9609375 78.94921875 C41.69118637 78.96279419 42.42143524 78.97636963 43.17381287 78.99035645 C48.33304568 79.11769472 48.33304568 79.11769472 50.55859375 80.23046875 C50.5854447 82.70970676 50.60535922 85.18865715 50.62109375 87.66796875 C50.62947266 88.37501953 50.63785156 89.08207031 50.64648438 89.81054688 C50.65512963 91.61740434 50.61079386 93.42434478 50.55859375 95.23046875 C48.87847033 96.91059217 46.80772183 96.35794214 44.50390625 96.35986328 C42.88718018 96.36459152 42.88718018 96.36459152 41.23779297 96.36941528 C40.06490723 96.36739105 38.89202148 96.36536682 37.68359375 96.36328125 C36.48879395 96.36423798 35.29399414 96.3651947 34.06298828 96.36618042 C31.53092395 96.36686246 28.99885787 96.36500653 26.46679688 96.36083984 C22.57548115 96.35549196 18.68428086 96.36078408 14.79296875 96.3671875 C12.33984349 96.36652672 9.88671831 96.36524557 7.43359375 96.36328125 C6.26070801 96.36530548 5.08782227 96.36732971 3.87939453 96.36941528 C2.80157715 96.36626312 1.72375977 96.36311096 0.61328125 96.35986328 C-0.34078613 96.35906769 -1.29485352 96.35827209 -2.27783203 96.35745239 C-4.44140625 96.23046875 -4.44140625 96.23046875 -5.44140625 95.23046875 C-5.54730085 92.3497804 -5.58818322 89.49293847 -5.58666992 86.61157227 C-5.59002853 85.70755676 -5.59338715 84.80354126 -5.59684753 83.87213135 C-5.60638797 80.86786546 -5.60830218 77.86365512 -5.609375 74.859375 C-5.61258539 72.78051225 -5.6159493 70.70164974 -5.61946106 68.62278748 C-5.62546005 64.25885494 -5.62730017 59.89494223 -5.62670898 55.53100586 C-5.62660731 49.92728577 -5.64026164 44.32369224 -5.65748119 38.72000217 C-5.66857618 34.42473258 -5.67062897 30.12949382 -5.67009926 25.83421135 C-5.67128308 23.7676646 -5.67572719 21.70111715 -5.68343163 19.63458443 C-5.69318135 16.74921826 -5.69037345 13.86412999 -5.68432617 10.97875977 C-5.68994568 10.11790268 -5.69556519 9.25704559 -5.70135498 8.37010193 C-5.65859164 0.37895222 -5.65859164 0.37895222 0 0 Z " fill="#323436" transform="translate(646.44140625,382.76953125)"/>
<path d="M0 0 C0 0.66 0 1.32 0 2 C0.75925781 2.22300781 1.51851562 2.44601562 2.30078125 2.67578125 C5.68608123 4.33658688 6.47805052 5.8648435 8.1875 9.1875 C8.92033203 10.57001953 8.92033203 10.57001953 9.66796875 11.98046875 C14.0539978 21.92299207 14.82087672 33.60301402 11.4375 44 C8.8272061 50.13696757 5.07612522 55.42921265 -0.9375 58.5 C-1.9584375 58.7475 -1.9584375 58.7475 -3 59 C-3 58.34 -3 57.68 -3 57 C-3.66 57 -4.32 57 -5 57 C-5 57.99 -5 58.98 -5 60 C-12.60038614 60.61293437 -17.59542083 59.1693463 -24 55 C-26.375 52.8125 -26.375 52.8125 -28 50 C-28.55300781 49.09121094 -28.55300781 49.09121094 -29.1171875 48.1640625 C-33.84190477 38.87754925 -33.68706429 25.99527267 -31.1171875 16.02734375 C-28.45922182 8.36148909 -25.14489375 3.83021763 -18.08984375 -0.05078125 C-11.96881441 -2.81315433 -6.24244473 -2.08081491 0 0 Z " fill="#FBFBFB" transform="translate(588,402)"/>
<path d="M0 0 C7.26977917 5.65427269 11.01580606 12.33853427 13.0625 21.3125 C13.124375 22.446875 13.18625 23.58125 13.25 24.75 C13.30027344 25.48476563 13.35054687 26.21953125 13.40234375 26.9765625 C13.77962957 36.48416514 12.07690241 45.69887423 5.8671875 53.12890625 C1.5976154 57.40879132 -2.61886646 59.51320738 -8.6875 60.1875 C-15.14540709 60.06066713 -20.65776251 57.64886014 -25.75 53.75 C-28.09370713 50.25683141 -29.51138195 46.7550746 -30.75 42.75 C-31.245 41.265 -31.245 41.265 -31.75 39.75 C-32.93019117 27.69412312 -33.04906898 14.63912523 -25.140625 4.734375 C-17.99193818 -2.02080612 -9.06430222 -4.12013737 0 0 Z " fill="#FBFBFB" transform="translate(977.75,402.25)"/>
<path d="M0 0 C0.69416016 -0.01224609 1.38832031 -0.02449219 2.10351562 -0.03710938 C3.92470901 -0.04239842 5.7453692 0.06580793 7.5625 0.1875 C10.21696057 2.84196057 9.79883457 4.79152369 9.81134033 8.40170288 C9.80414978 9.27348175 9.79695923 10.14526062 9.78955078 11.04345703 C9.78984283 11.96058472 9.79013489 12.8777124 9.79043579 13.82263184 C9.78903893 16.86362059 9.77346101 19.90436638 9.7578125 22.9453125 C9.75408364 25.04995591 9.75123607 27.15460106 9.74923706 29.25924683 C9.74159064 34.80609914 9.7219335 40.35284717 9.6998291 45.8996582 C9.67939237 51.55678903 9.67024 57.21393667 9.66015625 62.87109375 C9.63868856 73.97660839 9.60454048 85.08204553 9.5625 96.1875 C6.74993719 96.21434312 3.93762759 96.23426188 1.125 96.25 C0.32255859 96.25837891 -0.47988281 96.26675781 -1.30664062 96.27539062 C-3.35045221 96.2840143 -5.39433902 96.2397815 -7.4375 96.1875 C-9.313088 94.311912 -8.56412979 91.60461282 -8.57302856 89.10882568 C-8.57100433 88.23502258 -8.5689801 87.36121948 -8.56689453 86.4609375 C-8.56864685 85.54556213 -8.57039917 84.63018677 -8.57220459 83.68707275 C-8.57662461 80.64552951 -8.57368459 77.60404389 -8.5703125 74.5625 C-8.5709855 72.4588215 -8.57195548 70.35514308 -8.57321167 68.25146484 C-8.57468885 63.83625551 -8.57253345 59.42106637 -8.56787109 55.00585938 C-8.5621738 49.33257439 -8.5654527 43.65933671 -8.57144356 37.98605347 C-8.57504864 33.64021444 -8.57391083 29.29438672 -8.57131577 24.94854736 C-8.57064635 22.8560587 -8.57147543 20.76356903 -8.57379532 18.67108154 C-8.57632098 15.75204734 -8.57248248 12.83309088 -8.56689453 9.9140625 C-8.56891876 9.0402594 -8.57094299 8.1664563 -8.57302856 7.26617432 C-8.54532172 -0.50460509 -7.18495774 0.00663431 0 0 Z " fill="#323436" transform="translate(895.4375,382.8125)"/>
<path d="M0 0 C2.58209068 3.32911062 4.86413563 6.82446682 7.125 10.375 C7.51896973 10.99004395 7.91293945 11.60508789 8.31884766 12.23876953 C10.28666715 15.31138471 12.24717481 18.38856899 14.203125 21.46875 C19.92739374 30.45869668 25.91902096 39.24793671 32 48 C29.73276911 50.92912401 27.53794071 53.57196185 24.6875 55.9375 C19.76194252 60.13816411 15.07177988 64.57995453 10.36791992 69.02514648 C7.01886466 72.17497232 3.6464782 75.19018984 0 78 C0 77.34 0 76.68 0 76 C-0.66 76 -1.32 76 -2 76 C-1.89266182 66.23841298 -1.7800622 56.47690241 -1.66066074 46.71545506 C-1.60539078 42.18329414 -1.55196441 37.65112682 -1.50268555 33.11889648 C-1.45510189 28.74871452 -1.40276152 24.37861352 -1.34705925 20.00852776 C-1.32660842 18.33751365 -1.30789994 16.66647731 -1.29092598 14.99542427 C-1.26694207 12.6629644 -1.2368798 10.33065893 -1.20532227 7.99829102 C-1.1995668 7.3005809 -1.19381134 6.60287079 -1.18788147 5.88401794 C-1.11405216 1.11405216 -1.11405216 1.11405216 0 0 Z " fill="#8A7F7E" transform="translate(257,392)"/>
<path d="M0 0 C10.74994542 0.14202164 10.74994542 0.14202164 15.4375 2.1875 C20.77125715 8.15112295 21.84185425 14.36998445 21.4375 22.1875 C20.69515936 26.49307574 19.82829739 29.19255684 16.5625 32.0625 C11.51629968 35.49391622 7.16385233 35.31863302 1.1875 35.25 C0.44242188 35.24548828 -0.30265625 35.24097656 -1.0703125 35.23632812 C-2.9010764 35.22459246 -4.73179873 35.2066585 -6.5625 35.1875 C-8.03610305 32.24029391 -7.70483596 29.25714632 -7.6953125 26.02734375 C-7.69626923 25.32227188 -7.69722595 24.61720001 -7.69821167 23.89076233 C-7.69889229 22.40039989 -7.69704621 20.91003448 -7.69287109 19.41967773 C-7.68751318 17.13062942 -7.69282409 14.84177663 -7.69921875 12.55273438 C-7.6985581 11.1067704 -7.69727722 9.66080654 -7.6953125 8.21484375 C-7.69733673 7.52631821 -7.69936096 6.83779266 -7.70144653 6.12840271 C-7.66844276 -0.51110278 -6.42121477 0.03404674 0 0 Z " fill="#FCFCFC" transform="translate(724.5625,272.8125)"/>
<path d="M0 0 C-0.42667969 0.35449219 -0.85335937 0.70898438 -1.29296875 1.07421875 C-6.6981483 5.67697989 -11.67950251 10.62663834 -16.60620117 15.73120117 C-18.03468756 17.19038478 -19.51356736 18.59988994 -21 20 C-21.66 20 -22.32 20 -23 20 C-23.33 20.99 -23.66 21.98 -24 23 C-25.66666667 24.66666667 -27.33333333 26.33333333 -29 28 C-29.33 28.99 -29.66 29.98 -30 31 C-31.8203125 30.46875 -31.8203125 30.46875 -34 29 C-35.12393791 26.48143755 -36.02975898 24.10858868 -36.875 21.5 C-38.9533648 15.48272254 -41.32887244 10.23570542 -44.8984375 4.91796875 C-46 3 -46 3 -46 0 C-42.1267676 -0.29144194 -38.25308239 -0.57586993 -34.37890625 -0.85449219 C-32.43203508 -0.99585856 -30.48554058 -1.14238289 -28.5390625 -1.2890625 C-4.50831653 -3.00554435 -4.50831653 -3.00554435 0 0 Z " fill="#897E7D" transform="translate(843,74)"/>
<path d="M0 0 C0.99 0.33 1.98 0.66 3 1 C1.54470652 8.48099516 -0.80125805 15.42037117 -3.4375 22.5625 C-3.83259766 23.64724609 -4.22769531 24.73199219 -4.63476562 25.84960938 C-6.72517246 31.57822844 -8.84897017 37.29389194 -11 43 C-11.33 42.34 -11.66 41.68 -12 41 C-12.5775 40.731875 -13.155 40.46375 -13.75 40.1875 C-16.09349375 38.95065608 -17.56431443 37.46006321 -19.3828125 35.5625 C-24.38797447 30.72659471 -29.97180952 26.46620953 -36 23 C-34.96692697 19.72017373 -33.93886395 18.96469065 -30.90234375 17.2109375 C-29.58539389 16.58898359 -28.26339434 15.97765066 -26.9375 15.375 C-20.63507081 12.37733497 -14.56503213 9.12387843 -8.5625 5.5625 C-7.45346313 4.90677002 -7.45346313 4.90677002 -6.32202148 4.23779297 C-2.97310752 2.37277603 -2.97310752 2.37277603 0 0 Z " fill="#897E7D" transform="translate(806,29)"/>
<path d="M0 0 C7.17943565 3.82609874 14.0039864 8.1153206 20.8125 12.5625 C21.83537109 13.22185547 22.85824219 13.88121094 23.91210938 14.56054688 C24.89630859 15.20185547 25.88050781 15.84316406 26.89453125 16.50390625 C27.77987549 17.07955322 28.66521973 17.6552002 29.57739258 18.24829102 C31.97824759 19.98427154 33.96987939 21.8483965 36 24 C33.73401544 26.49113046 31.44850773 27.9590096 28.5 29.5625 C22.20957774 33.22727403 17.22487477 37.97378967 12 43 C11.67 42.34 11.34 41.68 11 41 C10.34 41 9.68 41 9 41 C7.56732074 36.10945789 6.14343272 31.21647317 4.72753906 26.32104492 C4.24490733 24.65693719 3.75990414 22.99351529 3.27246094 21.33081055 C2.57118241 18.93716088 1.87854234 16.54115326 1.1875 14.14453125 C0.96876221 13.4047554 0.75002441 12.66497955 0.5246582 11.90278625 C-0.53426456 8.19855406 -1.37474478 4.86271857 -1 1 C-0.67 0.67 -0.34 0.34 0 0 Z " fill="#8A7F7E" transform="translate(658,24)"/>
<path d="M0 0 C0.99 0.33 1.98 0.66 3 1 C6.37526257 32.526794 6.37526257 32.526794 7 45 C6.42636719 44.84144531 5.85273437 44.68289062 5.26171875 44.51953125 C4.41222656 44.28621094 3.56273437 44.05289063 2.6875 43.8125 C1.70394531 43.54179688 0.72039063 43.27109375 -0.29296875 42.9921875 C-3.16601251 42.22321688 -6.041352 41.48181251 -8.92578125 40.7578125 C-9.78196045 40.54020264 -10.63813965 40.32259277 -11.52026367 40.09838867 C-13.24924446 39.65970173 -14.9798868 39.22750941 -16.7121582 38.80200195 C-17.51097412 38.59792725 -18.30979004 38.39385254 -19.1328125 38.18359375 C-19.85355957 38.00368896 -20.57430664 37.82378418 -21.31689453 37.63842773 C-23 37 -23 37 -24 35 C-17.67492397 25.74895376 -11.29885105 16.53897103 -4.79785156 7.41040039 C-4.31541992 6.73098389 -3.83298828 6.05156738 -3.3359375 5.3515625 C-2.90845215 4.75166504 -2.4809668 4.15176758 -2.04052734 3.53369141 C-0.92890775 1.96788118 -0.92890775 1.96788118 0 0 Z " fill="#897E7D" transform="translate(759,4)"/>
<path d="M0 0 C2.72734091 2.46367049 4.43253327 5.16532732 6.3125 8.3125 C10.87477761 15.8817333 15.64782932 23.31365141 20.42700195 30.74731445 C21.01827881 31.67116943 21.60955566 32.59502441 22.21875 33.546875 C23.0221582 34.79742676 23.0221582 34.79742676 23.84179688 36.07324219 C25 38 25 38 25 39 C24.30777344 39.02578125 23.61554687 39.0515625 22.90234375 39.078125 C15.32079481 39.51763508 8.58839885 41.0206729 1.34765625 43.16015625 C-1.65023425 43.91225247 -3.94709712 44.06995355 -7 44 C-6.46008173 34.46983823 -5.1746777 25.2050495 -3.5 15.8125 C-3.27165163 14.49162 -3.04378493 13.17065664 -2.81640625 11.84960938 C-1.13940917 2.27881834 -1.13940917 2.27881834 0 0 Z " fill="#897E7E" transform="translate(706,2)"/>
<path d="M0 0 C9.04036674 0.46899935 18.01068176 1.39132091 27 2.4375 C28.08595459 2.55971924 29.17190918 2.68193848 30.29077148 2.80786133 C35.41841141 3.42012278 40.16861345 4.06241269 45 6 C44.34 6.33 43.68 6.66 43 7 C42.30838187 8.65646811 41.64551264 10.32502667 41 12 C40.09250062 13.55951506 39.15340081 15.10096654 38.1875 16.625 C34.96556443 21.8814256 32.43107278 27.34183946 30 33 C25.26482998 30.10120349 21.74531177 26.88348664 18.0625 22.75 C17.54034912 22.17443359 17.01819824 21.59886719 16.48022461 21.00585938 C13.0938959 17.26183098 9.75811568 13.47406237 6.46875 9.64453125 C5.0649335 8.07270479 3.59596043 6.63150857 2.0625 5.1875 C0 3 0 3 0 0 Z " fill="#897F7E" transform="translate(621,65)"/>
<path d="M0 0 C0.99 0.33 1.98 0.66 3 1 C3 10.9 3 20.8 3 31 C1 32 1 32 -0.71728516 31.49023438 C-1.40097168 31.19439453 -2.0846582 30.89855469 -2.7890625 30.59375 C-3.55855225 30.26511963 -4.32804199 29.93648926 -5.12084961 29.59790039 C-5.94721924 29.23559326 -6.77358887 28.87328613 -7.625 28.5 C-8.47006104 28.13704834 -9.31512207 27.77409668 -10.18579102 27.40014648 C-14.3589591 25.60293701 -18.51803322 23.77395129 -22.67578125 21.94140625 C-23.39620605 21.62429687 -24.11663086 21.3071875 -24.85888672 20.98046875 C-26.21511637 20.38152307 -27.56969793 19.77882742 -28.92236328 19.171875 C-31.91190419 17.8435399 -34.78224281 16.6370998 -38 16 C-37.67 15.01 -37.34 14.02 -37 13 C-34.43385226 11.88911189 -31.96762338 10.97449739 -29.31640625 10.1171875 C-28.54570297 9.85745148 -27.77499969 9.59771545 -26.98094177 9.33010864 C-24.51172085 8.50050189 -22.03742357 7.68741795 -19.5625 6.875 C-17.09244738 6.0518891 -14.62350972 5.22550686 -12.1547699 4.39846802 C-10.61661919 3.88455001 -9.07746639 3.37361988 -7.5372467 2.86593628 C-3.69592197 1.61510044 -3.69592197 1.61510044 0 0 Z " fill="#897F7E" transform="translate(646,104)"/>
<path d="M0 0 C0.66 0.33 1.32 0.66 2 1 C1.46886597 1.7885437 1.46886597 1.7885437 0.92700195 2.59301758 C-3.07862739 8.56726163 -6.96357754 14.61140405 -10.8125 20.6875 C-15.5517188 28.15674411 -20.31289332 35.60991949 -25.1328125 43.02734375 C-27.18977074 46.30212455 -29.10241138 49.63072598 -31 53 C-31.0825 52.38125 -31.165 51.7625 -31.25 51.125 C-31.4975 50.42375 -31.745 49.7225 -32 49 C-32.60714844 48.71640625 -33.21429688 48.4328125 -33.83984375 48.140625 C-36.53623732 46.71685118 -37.62428631 45.14684774 -39.3125 42.625 C-40.11107422 41.46871094 -40.11107422 41.46871094 -40.92578125 40.2890625 C-42 38 -42 38 -41.7578125 35.84375 C-40.27108046 32.22654628 -37.74971091 28.82449064 -34.16796875 27.13671875 C-31.46160508 25.71770645 -29.54297333 23.89930355 -27.3125 21.8125 C-23.43761814 18.26099774 -19.4845185 14.94884149 -15.3046875 11.765625 C-11.87512391 9.13823052 -8.52444727 6.41419628 -5.1640625 3.69921875 C-3 2 -3 2 0 0 Z " fill="#F7F7F7" transform="translate(357,382)"/>
<path d="M0 0 C4.25162767 1.61495935 8.11338604 3.6470229 12 6 C12 7.32 12 8.64 12 10 C10.37939453 11.44799805 10.37939453 11.44799805 8.1328125 12.76171875 C7.32972656 13.24060547 6.52664063 13.71949219 5.69921875 14.21289062 C4.84972656 14.69951172 4.00023437 15.18613281 3.125 15.6875 C2.28324219 16.18572266 1.44148438 16.68394531 0.57421875 17.19726562 C-5.18052455 20.59026228 -5.18052455 20.59026228 -8 22 C-10.78515625 20.85546875 -10.78515625 20.85546875 -14.0625 19.1875 C-15.14660156 18.64480469 -16.23070312 18.10210937 -17.34765625 17.54296875 C-20 16 -20 16 -21 14 C-21.08362715 10.9057956 -20.79361144 7.99335321 -20 5 C-14.19903273 -0.94971002 -7.95914049 -0.95303624 0 0 Z " fill="#8A7F7E" transform="translate(491,272)"/>
<path d="M0 0 C3.32431741 4.98647612 4.74844264 10.77557458 6.625 16.4375 C7.25535156 18.29858398 7.25535156 18.29858398 7.8984375 20.19726562 C8.29546875 21.38900391 8.6925 22.58074219 9.1015625 23.80859375 C9.46588379 24.89970459 9.83020508 25.99081543 10.20556641 27.11499023 C11 30 11 30 11 34 C4.4 34 -2.2 34 -9 34 C-9.98646579 29.06767103 -9.96222076 27.90280701 -8.41796875 23.4375 C-8.06283203 22.39335937 -7.70769531 21.34921875 -7.34179688 20.2734375 C-6.96087891 19.19320313 -6.57996094 18.11296875 -6.1875 17 C-5.63352539 15.37964844 -5.63352539 15.37964844 -5.06835938 13.7265625 C-3.47946694 9.10536726 -1.84282405 4.52670294 0 0 Z " fill="#FBFBFB" transform="translate(639,280)"/>
<path d="M0 0 C4.95 0 9.9 0 15 0 C15 0.33 15 0.66 15 1 C-0.30882666 3.29908491 -15.46693635 5.24057092 -30.92382812 6.20605469 C-40.4517707 6.84892412 -49.82219157 8.15741997 -59.24658203 9.6796875 C-60.83575439 9.93492188 -60.83575439 9.93492188 -62.45703125 10.1953125 C-63.38491455 10.35016113 -64.31279785 10.50500977 -65.26879883 10.66455078 C-68.20394588 11.02504886 -71.04572403 11.05599235 -74 11 C-74 10.67 -74 10.34 -74 10 C-75.98 9.34 -77.96 8.68 -80 8 C-80 7.67 -80 7.34 -80 7 C-72.53004188 6.27997614 -65.05927032 5.56888818 -57.58789062 4.86376953 C-55.05058915 4.62327467 -52.51347488 4.38079565 -49.9765625 4.13623047 C-46.3129845 3.78340947 -42.64877446 3.43792184 -38.984375 3.09375 C-37.86512634 2.9843811 -36.74587769 2.87501221 -35.5927124 2.7623291 C-29.11982072 2.16248439 -22.76710576 1.91749515 -16.26617432 2.0592041 C-14.03154046 2.26100668 -14.03154046 2.26100668 -13 1 C-11.37747508 0.90113647 -9.75052727 0.87028833 -8.125 0.875 C-7.24070312 0.87242188 -6.35640625 0.86984375 -5.4453125 0.8671875 C-3 1 -3 1 0 2 C0 1.34 0 0.68 0 0 Z " fill="#877F7F" transform="translate(1262,33)"/>
<path d="M0 0 C0 0.33 0 0.66 0 1 C-1.98 1.33 -3.96 1.66 -6 2 C-6 2.66 -6 3.32 -6 4 C-10.62 4.33 -15.24 4.66 -20 5 C-20 4.67 -20 4.34 -20 4 C-21.98 3.34 -23.96 2.68 -26 2 C-26 1.67 -26 1.34 -26 1 C-22.60536343 0.63367876 -19.20920203 0.28410225 -15.8125 -0.0625 C-14.85279297 -0.16626953 -13.89308594 -0.27003906 -12.90429688 -0.37695312 C-11.50727539 -0.51713867 -11.50727539 -0.51713867 -10.08203125 -0.66015625 C-8.80162964 -0.79369507 -8.80162964 -0.79369507 -7.49536133 -0.92993164 C-4.84302269 -1.00440784 -2.5737747 -0.61472301 0 0 Z " fill="#6A6869" transform="translate(1208,39)"/>
<path d="M0 0 C0.33 0.66 0.66 1.32 1 2 C-6.7558343 3.70994772 -14.06603268 4.24923458 -22 4 C-22 3.67 -22 3.34 -22 3 C-18.7 2.34 -15.4 1.68 -12 1 C-12 0.67 -12 0.34 -12 0 C-7.73933592 -0.7518819 -4.1734802 -1.35024359 0 0 Z " fill="#8D8584" transform="translate(1217,38)"/>
<path d="M0 0 C-0.33 0.66 -0.66 1.32 -1 2 C-3.94140625 2.4140625 -3.94140625 2.4140625 -7.5625 2.625 C-8.76003906 2.69976562 -9.95757813 2.77453125 -11.19140625 2.8515625 C-12.11824219 2.90054688 -13.04507812 2.94953125 -14 3 C-14.66 2.01 -15.32 1.02 -16 0 C-10.39436958 -0.82622671 -5.57710648 -1.06795656 0 0 Z " fill="#797272" transform="translate(1232,37)"/>
<path d="M0 0 C0.66 0.66 1.32 1.32 2 2 C-0.60179663 3.30089831 -2.5969188 3.16840078 -5.5 3.1875 C-6.4796875 3.20167969 -7.459375 3.21585938 -8.46875 3.23046875 C-11 3 -11 3 -13 1 C-8.60854301 0.14313034 -4.47525292 -0.25818767 0 0 Z " fill="#8C8281" transform="translate(1243,35)"/>
</svg>
